<?xml version="1.0" standalone="no"?>
<!DOCTYPE svg PUBLIC "-//W3C//DTD SVG 20010904//EN"
 "http://www.w3.org/TR/2001/REC-SVG-20010904/DTD/svg10.dtd">
<svg version="1.0" xmlns="http://www.w3.org/2000/svg"
 width="261.000000pt" height="261.000000pt" viewBox="0 0 261.000000 261.000000"
 preserveAspectRatio="xMidYMid meet">
<metadata>
Created by potrace 1.14, written by Peter Selinger 2001-2017
</metadata>
<g transform="translate(0.000000,261.000000) scale(0.100000,-0.100000)"
fill="#000000" stroke="none">
<path d="M1404 2571 c-2 -2 -23 -5 -46 -6 -55 -3 -58 -3 -58 -13 0 -4 9 -8 19
-8 11 0 18 3 16 6 -2 3 6 7 18 7 15 2 18 0 8 -6 -11 -7 -11 -9 0 -13 8 -3 -8
-4 -36 -3 -27 1 -54 -1 -60 -4 -5 -3 -26 -6 -45 -6 -29 0 -35 -4 -34 -22 0
-17 -4 -20 -23 -17 -13 2 -23 1 -23 -4 0 -5 -13 -7 -29 -4 -26 4 -29 2 -24
-17 7 -26 -21 -29 -37 -3 -10 15 -10 14 -5 -5 3 -12 1 -24 -5 -28 -5 -3 -10
-1 -10 4 0 6 -7 11 -15 11 -14 0 -19 -11 -16 -35 1 -10 -17 -15 -66 -18 -12 0
-20 -4 -17 -8 2 -4 -2 -14 -10 -22 -10 -10 -11 -18 -4 -25 6 -6 6 -12 -3 -17
-7 -5 -10 -4 -5 3 3 6 -3 16 -14 22 -19 10 -21 9 -18 -11 2 -16 -3 -23 -19
-25 -13 -2 -33 -6 -45 -8 -16 -2 -23 -10 -22 -25 1 -11 -3 -21 -8 -21 -5 0 -6
-4 -3 -10 3 -5 1 -10 -4 -10 -6 0 -11 7 -11 16 0 8 -4 12 -10 9 -5 -3 -10 -14
-10 -25 0 -22 -23 -32 -40 -17 -10 10 -12 7 -8 -9 3 -12 2 -28 -3 -35 -7 -11
-9 -11 -9 -1 0 9 -6 9 -23 -3 -13 -8 -27 -12 -30 -8 -4 3 -7 1 -7 -6 0 -7 7
-11 14 -8 10 4 13 1 9 -9 -3 -8 -12 -13 -19 -10 -7 3 -16 1 -19 -5 -4 -5 -10
-7 -14 -5 -4 3 -13 1 -20 -3 -10 -6 -9 -10 4 -14 10 -5 14 -3 9 5 -4 7 -3 8 4
4 20 -12 13 -29 -8 -23 -19 5 -23 0 -23 -33 0 -15 -14 -20 -63 -23 -11 0 -21
-7 -21 -13 0 -7 3 -13 6 -12 19 2 31 -3 27 -11 -3 -5 -15 -7 -27 -4 -17 5 -20
2 -17 -18 2 -14 -2 -24 -9 -25 -7 -1 -17 -2 -22 -3 -5 0 -11 -11 -13 -23 -2
-15 -10 -23 -23 -23 -14 0 -20 -6 -19 -23 1 -21 -6 -26 -34 -23 -7 1 -12 -2
-11 -6 5 -29 -2 -45 -19 -41 -14 4 -18 -1 -17 -21 0 -14 -5 -26 -12 -26 -6 0
-15 -4 -20 -9 -4 -5 -3 -6 3 -3 7 4 14 -1 16 -11 3 -11 0 -19 -8 -19 -7 0 -10
5 -7 11 3 6 -2 3 -12 -6 -10 -10 -18 -30 -17 -47 0 -17 -4 -31 -9 -31 -6 0 -7
-5 -3 -12 4 -7 3 -8 -5 -4 -9 6 -9 11 -1 21 8 9 8 15 0 20 -15 9 -32 -5 -26
-22 4 -9 1 -22 -5 -29 -8 -10 -8 -14 0 -14 6 0 11 -5 11 -11 0 -5 -5 -7 -11
-3 -7 4 -9 0 -5 -14 4 -11 2 -23 -3 -27 -6 -3 -8 0 -5 8 3 8 -1 19 -9 25 -11
9 -13 6 -13 -21 1 -21 -4 -31 -12 -29 -10 2 -10 -2 -2 -18 8 -14 8 -20 0 -20
-6 0 -9 -4 -5 -9 3 -5 0 -13 -6 -17 -7 -4 -9 -3 -6 3 4 6 1 13 -6 16 -8 3 -13
-4 -14 -22 -1 -59 -9 -84 -29 -100 -11 -9 -19 -22 -16 -30 3 -9 0 -11 -8 -6
-10 6 -11 4 -4 -6 12 -20 14 -39 3 -39 -5 0 -9 -5 -9 -11 0 -5 6 -7 13 -3 8 5
8 2 -2 -9 -11 -13 -11 -17 -1 -17 8 0 11 -3 8 -6 -4 -3 -15 -1 -25 4 -17 10
-18 4 -19 -116 0 -76 4 -130 11 -134 6 -5 6 -8 -2 -8 -7 0 -13 -5 -13 -11 0
-5 6 -7 12 -3 10 6 10 5 1 -7 -10 -12 -10 -18 -1 -27 9 -9 9 -12 -1 -12 -7 0
-9 -4 -6 -10 3 -5 10 -10 15 -10 10 0 8 19 -3 37 -6 9 -3 11 8 7 9 -4 14 -13
11 -20 -3 -8 0 -14 7 -14 8 0 9 -3 1 -8 -6 -4 -13 -15 -17 -24 -4 -12 -2 -15
9 -11 11 4 14 -4 14 -37 0 -38 1 -40 16 -26 8 9 18 16 21 16 4 0 3 -3 0 -7 -4
-3 -2 -12 4 -20 8 -8 8 -13 1 -13 -6 0 -12 6 -15 13 -3 6 -4 2 -4 -10 1 -12 4
-20 7 -18 3 2 12 -5 19 -17 7 -11 8 -17 2 -13 -6 3 -11 1 -11 -4 0 -6 11 -11
23 -11 33 0 40 -10 19 -27 -9 -8 -11 -12 -4 -8 6 3 12 2 12 -3 0 -5 9 -12 20
-15 12 -3 20 -14 20 -25 0 -12 5 -24 10 -27 6 -4 8 -11 5 -16 -4 -5 -1 -9 4
-9 14 0 14 13 -1 28 -7 7 -8 12 -3 12 19 0 32 -15 29 -33 -2 -13 5 -17 26 -17
23 0 27 -3 23 -20 -3 -11 0 -21 6 -21 6 -1 16 -2 23 -3 7 0 15 -10 18 -21 3
-11 11 -20 18 -21 29 -2 32 -5 33 -31 0 -16 3 -22 6 -16 3 10 10 10 25 2 11
-6 29 -9 39 -6 10 3 22 0 26 -5 4 -7 1 -8 -6 -3 -9 5 -12 2 -9 -11 2 -12 13
-20 28 -22 55 -6 69 -12 64 -27 -6 -14 10 -19 54 -18 6 1 12 -4 12 -11 0 -6 5
-4 10 4 8 12 10 9 10 -12 0 -27 2 -28 51 -28 46 0 51 -2 46 -20 -3 -11 -1 -18
3 -15 5 3 11 1 14 -4 4 -5 18 -8 32 -6 28 3 57 -20 48 -38 -3 -7 5 0 18 15 21
24 24 25 24 9 0 -11 -4 -17 -8 -15 -4 3 -8 1 -8 -4 0 -5 19 -10 43 -11 74 -2
93 -9 73 -28 -5 -5 -6 -2 -1 6 5 9 4 12 -3 7 -17 -10 -15 -23 4 -30 8 -3 13
-2 10 3 -6 10 24 25 32 16 3 -3 0 -5 -7 -5 -7 0 -10 -4 -7 -8 2 -4 19 -8 38
-7 23 0 39 -7 54 -25 20 -22 24 -23 40 -10 11 9 15 10 10 3 -5 -9 0 -13 16
-14 13 -1 44 -2 71 -3 53 -3 85 -21 37 -21 -16 -1 -26 3 -23 9 3 5 1 6 -5 2
-6 -4 -8 -14 -5 -22 5 -13 7 -13 14 -2 7 10 9 10 9 -2 0 -13 1 -13 10 0 5 8
10 10 10 5 0 -16 60 -18 78 -3 12 10 14 10 8 1 -8 -14 -5 -15 56 -15 22 0 39
-6 42 -15 3 -8 1 -11 -4 -8 -6 3 -10 1 -10 -5 0 -7 86 -9 278 -8 156 2 277 7
277 12 0 5 -8 10 -18 12 -9 1 -15 -1 -12 -5 2 -4 -2 -8 -9 -8 -8 0 -12 6 -10
12 3 7 28 13 56 14 28 1 58 7 67 14 12 9 13 9 7 0 -4 -8 -2 -13 4 -13 6 0 10
10 8 22 -2 18 2 22 30 24 45 3 65 12 57 24 -4 6 -12 7 -18 4 -7 -4 -8 -3 -4 2
8 8 30 12 90 17 15 1 27 8 27 14 0 7 -10 12 -21 10 -12 -1 -24 5 -26 13 -4 13
-3 13 6 0 9 -12 13 -13 20 -2 4 8 11 13 15 13 32 -4 45 1 48 21 2 16 9 23 23
22 21 -1 25 8 28 63 0 12 4 20 8 17 15 -9 38 8 31 24 -5 15 -4 16 14 2 19 -14
19 -14 0 8 -19 22 -19 22 9 22 22 0 26 4 22 20 -3 11 -1 20 3 20 5 0 7 11 4
25 -2 14 0 25 6 25 5 0 10 -4 10 -10 0 -5 5 -10 10 -10 6 0 9 3 9 7 -5 31 3
73 12 67 8 -5 8 -1 0 13 -12 24 -6 34 17 27 12 -4 10 -1 -3 8 -26 17 -28 33
-5 35 13 1 17 -3 13 -13 -3 -8 -1 -14 5 -14 6 0 9 8 7 18 -2 9 -4 21 -4 26 -1
4 -7 6 -14 3 -8 -3 -13 3 -14 17 0 11 1 15 4 9 3 -7 10 -13 17 -13 17 0 19
369 3 389 -9 12 -9 13 1 7 8 -4 12 -1 12 9 0 12 -5 15 -17 11 -16 -5 -16 -4
-3 6 18 15 20 72 3 89 -9 9 -11 8 -10 -2 2 -8 5 -19 9 -24 4 -6 -3 -12 -15
-12 -15 -2 -18 0 -9 6 17 10 17 21 0 32 -9 6 -10 9 -1 9 9 0 10 7 3 26 -8 19
-7 31 2 42 7 9 8 13 2 9 -8 -4 -12 10 -13 46 -2 28 -3 57 -3 64 -1 6 -8 9 -16
6 -11 -5 -11 -7 0 -14 10 -7 10 -9 -2 -9 -13 0 -13 -1 0 -11 11 -8 12 -12 2
-16 -6 -2 -9 -10 -6 -15 4 -6 3 -9 -2 -5 -5 3 -11 34 -12 68 -2 35 -6 67 -8
71 -3 4 1 8 8 8 9 0 9 3 -2 10 -8 5 -11 10 -6 10 5 0 3 7 -4 15 -10 12 -10 18
1 33 13 15 12 16 -4 3 -11 -9 -15 -21 -12 -35 5 -17 3 -17 -9 4 -8 14 -11 26
-6 28 5 2 2 15 -8 30 -9 14 -12 23 -5 19 7 -5 10 -1 8 10 -2 10 -4 20 -4 23
-1 3 -6 -2 -11 -10 -5 -8 -10 -10 -10 -4 0 6 3 14 7 18 13 13 12 39 -3 60 -8
11 -14 15 -14 8 0 -7 -4 -11 -9 -8 -4 3 -7 25 -6 50 2 36 -1 45 -15 49 -13 3
-17 0 -13 -9 3 -8 8 -12 12 -9 4 2 8 -2 8 -10 0 -13 -3 -12 -18 1 -12 11 -17
27 -15 45 2 16 0 29 -4 29 -5 0 -6 10 -2 22 4 17 2 20 -12 15 -9 -4 -15 -3
-11 2 3 5 1 11 -5 13 -5 1 -11 27 -13 56 -5 61 -7 65 -27 44 -13 -14 -12 -15
3 -9 9 3 17 2 17 -3 0 -6 -9 -10 -20 -10 -22 0 -27 15 -9 26 8 4 8 9 1 13 -6
4 -12 27 -13 52 -2 41 -5 46 -23 40 -18 -4 -18 -6 -3 -9 20 -4 23 -27 5 -38
-7 -4 -10 -4 -6 1 4 4 1 13 -6 21 -8 7 -12 27 -11 44 1 16 -2 30 -7 30 -6 0
-7 7 -4 16 3 8 2 12 -4 9 -6 -3 -10 -14 -10 -23 0 -12 -3 -13 -12 -4 -8 8 -8
15 3 28 9 12 10 15 2 10 -9 -5 -13 0 -14 13 -1 12 -3 26 -4 31 -1 6 -3 13 -4
18 -1 4 -5 0 -11 -8 -11 -18 -19 -11 -22 23 -2 21 -5 24 -17 14 -12 -10 -13
-9 -6 2 6 11 4 13 -11 7 -10 -4 -16 -4 -12 -1 9 9 -12 65 -24 65 -5 0 -6 -4
-3 -10 4 -6 -1 -7 -11 -3 -16 6 -15 7 2 20 16 12 16 13 1 13 -9 0 -17 4 -17 9
0 5 -8 8 -17 7 -13 -1 -19 9 -23 33 -3 19 -11 36 -18 37 -7 1 -8 0 -2 -3 17
-8 11 -32 -8 -30 -14 1 -17 7 -14 24 4 19 0 23 -22 23 -22 0 -27 4 -24 21 2
15 -3 23 -14 25 -10 1 -18 -2 -18 -7 0 -6 -6 -7 -12 -2 -7 4 -22 9 -32 10 -11
2 -22 6 -25 10 -3 3 4 3 16 0 13 -3 26 0 30 5 3 6 1 8 -5 4 -6 -3 -16 0 -24 7
-7 7 -31 14 -53 16 -89 6 -100 10 -100 32 0 5 -4 9 -10 9 -5 0 -9 -9 -9 -20 1
-11 -3 -17 -7 -14 -5 3 -7 9 -4 14 3 5 0 12 -7 16 -12 8 -176 12 -184 5z
m-194 -71 c0 -5 -2 -10 -4 -10 -3 0 -8 5 -11 10 -3 6 -1 10 4 10 6 0 11 -4 11
-10z m-263 -146 c-9 -9 -28 6 -21 18 4 6 10 6 17 -1 6 -6 8 -13 4 -17z m-137
-81 c0 -7 -4 -13 -9 -13 -5 0 -11 6 -14 13 -3 8 1 14 9 14 8 0 14 -6 14 -14z
m1298 -97 c-7 -8 -15 -12 -17 -11 -5 6 10 25 20 25 5 0 4 -6 -3 -14z m-1738
-340 c0 -3 -4 -8 -10 -11 -5 -3 -10 -1 -10 4 0 6 5 11 10 11 6 0 10 -2 10 -4z
m-56 -67 c-3 -5 -10 -7 -15 -3 -5 3 -7 10 -3 15 3 5 10 7 15 3 5 -3 7 -10 3
-15z m2007 -72 c-10 -9 -11 -8 -5 6 3 10 9 15 12 12 3 -3 0 -11 -7 -18z
m-2111 -41 c0 -3 -4 -8 -10 -11 -5 -3 -10 -1 -10 4 0 6 5 11 10 11 6 0 10 -2
10 -4z m2177 -26 c-1 -10 -5 -16 -9 -14 -4 3 -8 -1 -8 -8 0 -10 -3 -9 -9 1 -6
9 -6 22 0 33 12 22 28 15 26 -12z m-2342 -419 c3 -5 2 -12 -3 -15 -5 -3 -9 1
-9 9 0 17 3 19 12 6z m0 -49 c-3 -3 -11 0 -18 7 -9 10 -8 11 6 5 10 -3 15 -9
12 -12z m0 -181 c3 -5 2 -12 -3 -15 -5 -3 -9 1 -9 9 0 17 3 19 12 6z m2476
-244 c-10 -9 -11 -8 -5 6 3 10 9 15 12 12 3 -3 0 -11 -7 -18z m-2111 -268 c0
-14 -17 -10 -23 5 -4 10 -1 13 9 9 7 -3 14 -9 14 -14z m270 -135 c0 -8 -19
-13 -24 -6 -3 5 1 9 9 9 8 0 15 -2 15 -3z m88 -42 c2 -7 -1 -12 -8 -12 -6 0
-9 4 -6 9 4 5 1 12 -4 14 -6 3 -5 4 2 3 6 -1 14 -8 16 -14z m1577 9 c3 -5 2
-12 -3 -15 -5 -3 -9 1 -9 9 0 17 3 19 12 6z m-1508 -53 c-3 -8 -6 -5 -6 6 -1
11 2 17 5 13 3 -3 4 -12 1 -19z m274 -85 c8 2 11 2 6 0 -4 -3 -4 -9 -1 -15 4
-6 -2 -5 -15 1 -11 7 -21 17 -21 24 0 9 2 9 8 -1 5 -7 15 -11 23 -9z m379 -95
c0 -4 -4 -8 -9 -8 -6 0 -12 4 -15 8 -3 5 1 9 9 9 8 0 15 -4 15 -9z m450 6 c0
-8 -19 -13 -24 -6 -3 5 1 9 9 9 8 0 15 -2 15 -3z"/>
<path d="M1639 2560 c-8 -6 -8 -9 0 -14 6 -4 11 -2 11 5 0 8 4 8 15 -1 9 -7
18 -10 22 -6 3 3 1 6 -6 6 -7 0 -10 4 -7 8 6 10 -19 11 -35 2z"/>
<path d="M1705 2550 c-3 -6 1 -7 9 -4 18 7 21 14 7 14 -6 0 -13 -4 -16 -10z"/>
<path d="M1963 2375 c0 -8 4 -12 9 -9 5 3 6 10 3 15 -9 13 -12 11 -12 -6z"/>
<path d="M830 2330 c0 -5 5 -10 11 -10 5 0 7 5 4 10 -3 6 -8 10 -11 10 -2 0
-4 -4 -4 -10z"/>
<path d="M525 2060 c6 -10 4 -12 -11 -6 -15 6 -17 5 -6 -5 9 -9 15 -10 23 -2
8 8 7 13 -2 18 -8 6 -10 4 -4 -5z"/>
<path d="M420 1976 c0 -2 8 -10 18 -17 15 -13 16 -12 3 4 -13 16 -21 21 -21
13z"/>
<path d="M2295 1870 c-3 -5 -1 -10 4 -10 6 0 11 5 11 10 0 6 -2 10 -4 10 -3 0
-8 -4 -11 -10z"/>
<path d="M2326 1792 c-3 -5 1 -9 9 -9 8 0 12 4 9 9 -3 4 -7 8 -9 8 -2 0 -6 -4
-9 -8z"/>
<path d="M106 1507 c3 -10 9 -15 12 -12 3 3 0 11 -7 18 -10 9 -11 8 -5 -6z"/>
<path d="M53 1410 c2 -8 0 -23 -5 -32 -10 -21 -2 -23 16 -5 11 11 11 17 -1 33
-9 11 -13 13 -10 4z"/>
<path d="M2510 1211 c0 -5 8 -15 18 -22 15 -12 16 -12 5 2 -7 9 -10 19 -6 22
3 4 1 7 -5 7 -7 0 -12 -4 -12 -9z"/>
<path d="M150 651 c0 -6 4 -13 10 -16 6 -3 7 1 4 9 -7 18 -14 21 -14 7z"/>
<path d="M230 556 c0 -2 7 -7 16 -10 8 -3 12 -2 9 4 -6 10 -25 14 -25 6z"/>
<path d="M500 381 c0 -10 19 -25 25 -20 1 2 -3 10 -11 17 -8 7 -14 8 -14 3z"/>
<path d="M590 331 c0 -5 7 -12 16 -15 14 -5 15 -4 4 9 -14 17 -20 19 -20 6z"/>
<path d="M2381 331 c-10 -7 -10 -10 -1 -16 6 -4 16 -3 22 3 13 13 -4 23 -21
13z"/>
<path d="M917 199 c7 -7 15 -10 18 -7 3 3 -2 9 -12 12 -14 6 -15 5 -6 -5z"/>
<path d="M1050 151 c0 -6 4 -13 10 -16 6 -3 7 1 4 9 -7 18 -14 21 -14 7z"/>
<path d="M2101 104 c6 -7 16 -11 21 -8 11 7 3 17 -18 20 -12 2 -13 -1 -3 -12z"/>
<path d="M1188 103 c7 -3 16 -2 19 1 4 3 -2 6 -13 5 -11 0 -14 -3 -6 -6z"/>
<path d="M1398 63 c6 -3 10 -8 8 -12 -3 -4 1 -8 9 -8 24 0 17 23 -7 24 -13 0
-17 -1 -10 -4z"/>
</g>
</svg>
