<?xml version="1.0" encoding="UTF-8"?>
<svg xmlns="http://www.w3.org/2000/svg" xmlns:xlink="http://www.w3.org/1999/xlink" width="px" height="px" viewBox="0 0 315 72" version="1.1">
<g id="surface1">
<path style=" stroke:none;fill-rule:nonzero;fill:rgb(100%,100%,100%);fill-opacity:1;" d="M 165.886719 43.5 C 157.949219 43.5 151.660156 49.648438 151.660156 57.75 C 151.660156 65.851562 158.097656 72 165.886719 72 C 173.824219 72 180.113281 65.699219 180.113281 57.75 C 180.113281 49.648438 173.824219 43.5 165.886719 43.5 Z M 165.886719 49.199219 C 170.679688 49.199219 174.273438 52.800781 174.273438 57.75 C 174.273438 62.699219 170.53125 66.300781 165.886719 66.300781 C 161.09375 66.300781 157.5 62.699219 157.5 57.75 C 157.351562 52.800781 161.09375 49.199219 165.886719 49.199219 Z M 165.886719 49.199219 "/>
<path style=" stroke:none;fill-rule:nonzero;fill:rgb(100%,100%,100%);fill-opacity:1;" d="M 284.347656 62.851562 L 284.347656 49.800781 L 291.089844 49.800781 L 291.089844 44.101562 L 284.347656 44.101562 L 284.347656 36.449219 L 278.507812 38.25 L 278.507812 44.101562 L 273.566406 44.101562 L 273.566406 49.800781 L 278.507812 49.800781 L 278.507812 62.851562 C 278.507812 69.898438 282.101562 72.449219 291.089844 71.25 L 291.089844 66 C 286.59375 66.300781 284.347656 66.300781 284.347656 62.851562 Z M 284.347656 62.851562 "/>
<path style=" stroke:none;fill-rule:nonzero;fill:rgb(100%,100%,100%);fill-opacity:1;" d="M 314.601562 65.851562 L 301.273438 65.851562 L 314.601562 49.800781 L 314.601562 44.398438 L 293.933594 44.398438 L 293.933594 49.800781 L 307.261719 49.800781 L 293.933594 65.851562 L 293.933594 71.398438 L 314.601562 71.398438 Z M 314.601562 65.851562 "/>
<path style=" stroke:none;fill-rule:nonzero;fill:rgb(100%,100%,100%);fill-opacity:1;" d="M 81.421875 1.800781 L 87.410156 0 L 87.410156 37.949219 L 81.421875 37.949219 L 81.421875 35.851562 C 78.726562 37.800781 75.28125 38.851562 71.535156 38.550781 C 64.945312 37.949219 59.40625 32.550781 58.808594 25.800781 C 58.808594 25.199219 58.65625 24.75 58.65625 24.148438 C 58.65625 23.699219 58.65625 23.25 58.808594 22.800781 C 58.808594 22.648438 58.808594 22.648438 58.808594 22.5 L 58.808594 22.199219 C 58.808594 21.898438 58.957031 21.601562 58.957031 21.300781 C 58.957031 21.148438 58.957031 21 59.105469 21 L 59.105469 20.699219 C 59.105469 20.398438 59.257812 20.25 59.257812 19.949219 C 59.257812 19.800781 59.40625 19.648438 59.40625 19.5 L 59.40625 19.351562 C 59.554688 19.050781 59.554688 18.898438 59.707031 18.601562 C 59.707031 18.449219 59.855469 18.300781 59.855469 18.148438 C 59.855469 18.148438 59.855469 18.148438 59.855469 18 C 60.003906 17.699219 60.15625 17.550781 60.15625 17.25 C 60.304688 17.101562 60.304688 16.949219 60.453125 16.800781 C 60.605469 16.648438 60.753906 16.351562 60.902344 16.199219 C 61.054688 16.050781 61.203125 15.898438 61.351562 15.75 C 61.503906 15.601562 61.652344 15.300781 61.800781 15.148438 C 61.953125 15 62.101562 14.851562 62.25 14.699219 C 62.402344 14.550781 62.550781 14.398438 62.851562 14.101562 C 63 13.949219 63.148438 13.800781 63.300781 13.648438 C 63.449219 13.5 63.75 13.351562 63.898438 13.199219 C 64.496094 12.898438 64.648438 12.75 64.796875 12.601562 C 64.945312 12.449219 65.246094 12.300781 65.394531 12.148438 L 65.546875 12.148438 C 65.695312 12 65.84375 12 65.996094 11.851562 C 66.292969 11.699219 66.445312 11.550781 66.742188 11.550781 L 66.894531 11.550781 C 67.042969 11.550781 67.191406 11.398438 67.34375 11.398438 C 67.644531 11.25 67.792969 11.25 68.09375 11.101562 L 68.242188 11.101562 C 68.390625 11.101562 68.542969 10.949219 68.691406 10.949219 C 68.992188 10.800781 69.140625 10.800781 69.441406 10.800781 L 69.738281 10.800781 C 69.890625 10.800781 70.039062 10.800781 70.1875 10.648438 C 70.488281 10.648438 70.789062 10.5 71.085938 10.5 L 71.238281 10.5 C 71.386719 10.5 71.386719 10.5 71.535156 10.5 C 71.984375 10.5 72.585938 10.351562 73.035156 10.351562 C 76.179688 10.351562 79.023438 11.398438 81.421875 13.050781 Z M 71.238281 32.550781 C 76.628906 33.75 81.421875 29.550781 81.421875 24.449219 L 81.421875 24.300781 C 81.421875 19.648438 77.675781 15.898438 73.035156 15.898438 C 72.734375 15.898438 72.433594 15.898438 72.136719 15.898438 L 71.984375 15.898438 C 71.984375 15.898438 71.984375 15.898438 71.835938 15.898438 C 71.6875 15.898438 71.386719 15.898438 71.238281 16.050781 L 71.085938 16.050781 C 70.9375 16.050781 70.789062 16.199219 70.636719 16.199219 C 70.488281 16.199219 70.339844 16.351562 70.339844 16.351562 C 70.1875 16.351562 70.039062 16.5 69.890625 16.5 C 69.738281 16.5 69.738281 16.648438 69.589844 16.648438 C 69.441406 16.800781 69.289062 16.800781 69.140625 16.949219 C 68.992188 16.949219 68.992188 17.101562 68.839844 17.101562 C 68.691406 17.25 68.542969 17.25 68.390625 17.398438 C 68.390625 17.398438 68.390625 17.398438 68.242188 17.398438 L 68.09375 17.550781 C 67.941406 17.699219 67.792969 17.851562 67.644531 18 C 67.644531 18 67.644531 18 67.492188 18.148438 C 67.34375 18.300781 67.042969 18.601562 66.894531 18.75 C 66.742188 18.898438 66.59375 19.199219 66.445312 19.351562 C 66.445312 19.351562 66.445312 19.5 66.292969 19.5 C 66.292969 19.5 66.292969 19.5 66.292969 19.648438 C 66.144531 19.800781 66.144531 19.949219 65.996094 20.101562 C 65.996094 20.25 65.84375 20.25 65.84375 20.398438 C 65.695312 20.550781 65.695312 20.699219 65.695312 20.851562 C 65.695312 21 65.546875 21 65.546875 21.148438 C 65.546875 21.300781 65.394531 21.449219 65.394531 21.601562 C 65.394531 21.75 65.394531 21.898438 65.246094 21.898438 C 65.246094 22.050781 65.246094 22.199219 65.097656 22.5 C 65.097656 22.648438 65.097656 22.800781 65.097656 22.800781 C 65.097656 22.949219 65.097656 23.25 65.097656 23.398438 L 65.097656 23.550781 C 65.097656 23.699219 65.097656 23.699219 65.097656 23.851562 C 65.097656 24.449219 65.097656 25.050781 65.246094 25.800781 C 65.546875 29.398438 68.09375 31.949219 71.238281 32.550781 Z M 71.238281 32.550781 "/>
<path style=" stroke:none;fill-rule:nonzero;fill:rgb(100%,100%,100%);fill-opacity:1;" d="M 23.460938 10.949219 L 23.460938 12.75 C 21.214844 11.101562 18.222656 10.050781 15.226562 10.050781 C 6.839844 10.050781 0.101562 17.398438 1 25.949219 C 1.746094 32.550781 7.140625 37.949219 13.726562 38.699219 C 17.472656 39 20.917969 37.949219 23.613281 36 L 23.613281 38.101562 L 29.601562 38.101562 L 29.601562 10.949219 Z M 23.460938 24.449219 C 23.460938 29.699219 18.671875 33.75 13.277344 32.550781 C 10.132812 31.949219 7.589844 29.398438 6.839844 26.101562 C 5.789062 20.699219 9.984375 15.898438 15.226562 15.898438 C 19.71875 15.898438 23.460938 19.648438 23.460938 24.449219 Z M 23.460938 24.449219 "/>
<path style=" stroke:none;fill-rule:nonzero;fill:rgb(100%,100%,100%);fill-opacity:1;" d="M 196.589844 43.800781 L 196.589844 50.101562 C 192.695312 49.800781 188.203125 51.601562 188.203125 57.75 L 188.203125 71.398438 L 182.359375 71.398438 L 182.359375 44.25 L 188.203125 44.25 L 188.203125 48.75 C 189.847656 45.148438 193.144531 43.800781 196.589844 43.800781 Z M 196.589844 43.800781 "/>
<path style=" stroke:none;fill-rule:nonzero;fill:rgb(100%,100%,100%);fill-opacity:1;" d="M 210.664062 43.5 C 202.726562 43.5 196.4375 49.648438 196.4375 57.75 C 196.4375 65.851562 202.878906 72 210.664062 72 C 218.601562 72 224.894531 65.699219 224.894531 57.75 C 225.042969 49.648438 218.753906 43.5 210.664062 43.5 Z M 210.664062 49.199219 C 215.457031 49.199219 219.050781 52.800781 219.050781 57.75 C 219.050781 62.699219 215.308594 66.300781 210.664062 66.300781 C 205.875 66.300781 202.277344 62.699219 202.277344 57.75 C 202.277344 52.800781 206.023438 49.199219 210.664062 49.199219 Z M 210.664062 49.199219 "/>
<path style=" stroke:none;fill-rule:nonzero;fill:rgb(100%,100%,100%);fill-opacity:1;" d="M 263.53125 44.25 L 254.996094 71.398438 L 249.304688 71.398438 L 243.613281 53.101562 L 237.921875 71.398438 L 232.230469 71.398438 L 223.695312 44.25 L 229.835938 44.25 L 235.078125 63 L 240.769531 44.25 L 246.308594 44.25 L 252 63 L 257.242188 44.25 Z M 263.53125 44.25 "/>
<path style=" stroke:none;fill-rule:nonzero;fill:rgb(100%,100%,100%);fill-opacity:1;" d="M 271.320312 44.25 L 265.480469 44.25 L 265.480469 71.398438 L 271.320312 71.398438 Z M 271.320312 44.25 "/>
<path style=" stroke:none;fill-rule:nonzero;fill:rgb(100%,100%,100%);fill-opacity:1;" d="M 103.886719 10.5 L 103.886719 16.800781 C 99.992188 16.5 95.5 18.300781 95.5 24.449219 L 95.5 38.101562 L 89.65625 38.101562 L 89.65625 10.949219 L 95.5 10.949219 L 95.5 15.449219 C 97.144531 11.851562 100.441406 10.5 103.886719 10.5 Z M 103.886719 10.5 "/>
<path style=" stroke:none;fill-rule:evenodd;fill:rgb(100%,100%,100%);fill-opacity:1;" d="M 130.691406 47.699219 L 130.691406 32.851562 L 125.898438 30.148438 C 125.601562 30.601562 125.300781 31.050781 124.851562 31.351562 C 123.355469 32.550781 121.40625 33.449219 118.859375 33.449219 C 114.519531 33.449219 111.074219 31.199219 110.175781 27 L 131.890625 27 C 131.890625 26.625 131.925781 26.210938 131.964844 25.800781 C 132.003906 25.386719 132.039062 24.976562 132.039062 24.601562 C 132.039062 16.800781 126.5 10.351562 118.410156 10.351562 C 110.023438 10.351562 104.183594 16.5 104.183594 24.601562 C 104.183594 32.699219 109.875 38.851562 118.859375 38.851562 C 121.105469 38.851562 123.054688 38.398438 124.851562 37.648438 L 124.851562 71.398438 L 130.691406 71.398438 L 130.691406 56.851562 C 130.691406 51.300781 133.6875 49.050781 137.582031 49.050781 C 141.175781 49.050781 143.570312 51.300781 143.570312 55.351562 L 143.570312 71.398438 L 149.414062 71.398438 L 149.414062 54.601562 C 149.414062 47.550781 145.070312 43.5 139.078125 43.5 C 135.335938 43.5 132.488281 44.851562 130.691406 47.699219 Z M 126.050781 22.199219 C 125.152344 17.550781 121.855469 15.601562 118.261719 15.601562 C 113.917969 15.601562 110.921875 18.148438 110.175781 22.199219 Z M 126.050781 22.199219 "/>
<path style=" stroke:none;fill-rule:nonzero;fill:rgb(100%,100%,100%);fill-opacity:1;" d="M 154.953125 30 C 153.605469 31.949219 151.210938 33.300781 147.914062 33.300781 C 143.570312 33.300781 140.128906 31.199219 139.230469 26.851562 L 160.792969 26.851562 C 160.945312 26.101562 160.945312 25.199219 160.945312 24.449219 C 160.945312 16.648438 155.402344 10.199219 147.316406 10.199219 C 138.78125 10.199219 133.089844 16.5 133.089844 24.449219 C 133.089844 32.550781 138.929688 38.699219 147.765625 38.699219 C 153.007812 38.699219 157.199219 36.449219 159.597656 32.851562 Z M 147.464844 15.601562 C 151.058594 15.601562 154.355469 17.550781 155.253906 22.199219 L 139.230469 22.199219 C 140.128906 18.148438 143.121094 15.601562 147.464844 15.601562 Z M 147.464844 15.601562 "/>
<path style=" stroke:none;fill-rule:nonzero;fill:rgb(100%,100%,100%);fill-opacity:1;" d="M 221.898438 33.449219 C 225.191406 33.449219 227.589844 31.949219 228.9375 30.148438 L 233.730469 33 C 231.183594 36.75 227.140625 38.851562 221.898438 38.851562 C 212.910156 38.851562 207.222656 32.699219 207.222656 24.601562 C 207.222656 16.5 213.0625 10.351562 221.449219 10.351562 C 229.535156 10.351562 235.078125 16.800781 235.078125 24.601562 C 235.078125 25.351562 234.925781 26.25 234.925781 27 L 213.363281 27 C 214.109375 31.199219 217.554688 33.449219 221.898438 33.449219 Z M 229.085938 22.199219 C 228.335938 17.550781 224.894531 15.601562 221.296875 15.601562 C 216.957031 15.601562 213.960938 18.148438 213.0625 22.199219 Z M 229.085938 22.199219 "/>
<path style=" stroke:none;fill-rule:nonzero;fill:rgb(100%,100%,100%);fill-opacity:1;" d="M 265.480469 38.101562 L 271.320312 38.101562 L 271.320312 32.851562 L 265.480469 32.851562 Z M 265.480469 38.101562 "/>
<path style=" stroke:none;fill-rule:nonzero;fill:rgb(100%,100%,100%);fill-opacity:1;" d="M 46.078125 10.199219 C 42.332031 10.199219 39.488281 11.550781 37.691406 14.398438 L 37.691406 10.800781 L 31.851562 10.800781 L 31.851562 37.949219 L 37.691406 37.949219 L 37.691406 23.398438 C 37.691406 17.851562 40.6875 15.601562 44.578125 15.601562 C 48.324219 15.601562 50.570312 17.699219 50.570312 21.898438 L 50.570312 37.949219 L 56.410156 37.949219 L 56.410156 21.449219 C 56.5625 14.398438 52.21875 10.199219 46.078125 10.199219 Z M 46.078125 10.199219 "/>
<path style=" stroke:none;fill-rule:nonzero;fill:rgb(100%,100%,100%);fill-opacity:1;" d="M 243.761719 38.101562 L 237.921875 38.101562 L 237.921875 10.949219 L 243.761719 10.949219 L 243.761719 14.398438 C 245.558594 11.550781 248.40625 10.199219 252.148438 10.199219 C 258.140625 10.199219 262.484375 14.25 262.484375 21.300781 L 262.484375 37.949219 L 256.644531 37.949219 L 256.644531 22.050781 C 256.644531 18 254.246094 15.75 250.652344 15.75 C 246.757812 15.75 243.761719 18 243.761719 23.550781 Z M 243.761719 38.101562 "/>
<path style=" stroke:none;fill-rule:nonzero;fill:rgb(100%,100%,100%);fill-opacity:1;" d="M 168.730469 18.449219 C 168.730469 16.5 170.53125 15.601562 172.625 15.601562 C 174.722656 15.601562 176.519531 16.5 177.566406 18.300781 L 182.660156 15.75 C 180.714844 12.300781 177.117188 10.199219 172.625 10.199219 C 167.085938 10.199219 162.742188 13.351562 162.742188 18.449219 C 162.742188 24.148438 167.683594 25.5 171.878906 26.699219 C 174.871094 27.601562 177.269531 28.199219 177.269531 30.300781 C 177.269531 32.398438 175.320312 33.300781 172.625 33.300781 C 170.078125 33.300781 167.984375 32.25 166.933594 30.300781 L 161.691406 32.851562 C 163.492188 36.449219 167.382812 38.699219 172.476562 38.699219 C 178.316406 38.699219 183.109375 35.699219 183.109375 30.300781 C 183.109375 24.449219 178.015625 22.949219 173.972656 21.898438 C 171.277344 21.148438 168.730469 20.398438 168.730469 18.449219 Z M 168.730469 18.449219 "/>
<path style=" stroke:none;fill-rule:nonzero;fill:rgb(100%,100%,100%);fill-opacity:1;" d="M 195.238281 15.601562 C 193.144531 15.601562 191.347656 16.5 191.347656 18.449219 C 191.347656 20.550781 193.890625 21.148438 196.738281 22.050781 C 200.929688 23.25 205.875 24.601562 205.875 30.449219 C 205.875 35.851562 201.230469 38.851562 195.238281 38.851562 C 190 38.851562 186.253906 36.601562 184.457031 33 L 189.699219 30.449219 C 190.746094 32.398438 192.695312 33.449219 195.390625 33.449219 C 197.9375 33.449219 200.03125 32.550781 200.03125 30.449219 C 200.03125 28.5 197.488281 27.75 194.640625 26.851562 C 190.449219 25.648438 185.503906 24.300781 185.503906 18.601562 C 185.503906 13.5 189.847656 10.351562 195.390625 10.351562 C 199.734375 10.351562 203.476562 12.449219 205.425781 15.898438 L 200.332031 18.449219 C 199.132812 16.5 197.335938 15.601562 195.238281 15.601562 Z M 195.238281 15.601562 "/>
</g>
</svg>
