<?xml version="1.0" encoding="UTF-8"?>
<svg xmlns="http://www.w3.org/2000/svg" xmlns:xlink="http://www.w3.org/1999/xlink" width="px" height="px" viewBox="0 0 284 72" version="1.1">
<g id="surface1">
<path style=" stroke:none;fill-rule:nonzero;fill:rgb(100%,100%,100%);fill-opacity:1;" d="M 36 72 C 16.25 72 0 56 0 36 C 0 16.25 16 0 36 0 C 56 0 72 16 72 36 C 72 55.75 56 72 36 72 Z M 36 6.25 C 19.5 6.25 6.25 19.75 6.25 36 C 6.25 52.5 19.75 65.75 36 65.75 C 52.25 65.75 65.75 52.25 65.75 36 C 66 19.5 52.5 6.25 36 6.25 Z M 36 6.25 "/>
<path style=" stroke:none;fill-rule:nonzero;fill:rgb(100%,100%,100%);fill-opacity:1;" d="M 36 72 C 16.25 72 0 56 0 36 C 0 16.25 16 0 36 0 C 56 0 72 16 72 36 C 72 55.75 56 72 36 72 Z M 36 6.25 C 19.5 6.25 6.25 19.75 6.25 36 C 6.25 52.5 19.75 65.75 36 65.75 C 52.25 65.75 65.75 52.25 65.75 36 C 66 19.5 52.5 6.25 36 6.25 Z M 36 6.25 "/>
<path style=" stroke:none;fill-rule:nonzero;fill:rgb(100%,100%,100%);fill-opacity:1;" d="M 36 53 C 26.75 53 19 45.5 19 36 C 19 26.75 26.5 19 36 19 C 45.5 19 53 26.5 53 36 C 53 45.25 45.5 53 36 53 Z M 36 25.25 C 30 25.25 25.25 30 25.25 36 C 25.25 42 30 46.75 36 46.75 C 42 46.75 46.75 42 46.75 36 C 47 30 42 25.25 36 25.25 Z M 36 25.25 "/>
<path style=" stroke:none;fill-rule:nonzero;fill:rgb(100%,100%,100%);fill-opacity:1;" d="M 25 30.75 C 24.25 30.75 23.5 30.5 23 30 C 21.75 28.75 21.75 27 22.75 25.75 L 43 3.75 C 44.25 2.5 46 2.5 47.25 3.5 C 48.5 4.75 48.5 6.5 47.5 7.75 L 27.25 29.75 C 26.5 30.5 25.75 30.75 25 30.75 Z M 25 30.75 "/>
<path style=" stroke:none;fill-rule:nonzero;fill:rgb(100%,100%,100%);fill-opacity:1;" d="M 27.25 69.25 C 26.5 69.25 25.75 69 25.25 68.5 C 24 67.25 24 65.5 25 64.25 L 44.25 43.25 C 45.5 42 47.25 42 48.5 43 C 49.75 44.25 49.75 46 48.75 47.25 L 29.5 68.25 C 29 69 28 69.25 27.25 69.25 Z M 27.25 69.25 "/>
<path style=" stroke:none;fill-rule:nonzero;fill:rgb(100%,100%,100%);fill-opacity:1;" d="M 83 16.75 L 89.25 16.75 L 89.25 29.25 C 90.5 27.5 93.5 26.25 95.5 26.25 C 102.25 26.25 106 32.75 106 39 C 106 47 102.5 53.25 95.5 53.25 C 92.75 53.25 90.75 52 88.5 50 L 87.75 52.75 L 83 52.75 Z M 89.25 46 C 90.5 47 91.5 48.25 94 48.25 C 97.75 48.25 99.75 45.25 99.75 39.75 C 99.75 34.25 97.75 31.25 94 31.25 C 92 31.25 90.5 32.25 89.25 33.5 Z M 89.25 46 "/>
<path style=" stroke:none;fill-rule:nonzero;fill:rgb(100%,100%,100%);fill-opacity:1;" d="M 111.5 22 L 111.5 16.25 L 117.75 16.25 L 117.75 22 Z M 117.75 52.75 L 111.5 52.75 L 111.5 26.75 L 117.75 26.75 Z M 117.75 52.75 "/>
<path style=" stroke:none;fill-rule:nonzero;fill:rgb(100%,100%,100%);fill-opacity:1;" d="M 125.75 26.75 L 125.75 18.25 L 132 18.25 L 132 26.75 L 137 26.75 L 137 31.75 L 132 31.75 L 132 46.5 C 132 48 132.75 48.25 134.25 48.25 C 135.25 48.25 136.25 48 137 47.75 L 137 52.75 C 135.25 53 133.75 53.25 132 53.25 C 127.5 53.25 125.5 51 125.5 47.25 L 125.5 31.75 L 122 31.75 L 122 26.75 Z M 125.75 26.75 "/>
<path style=" stroke:none;fill-rule:nonzero;fill:rgb(100%,100%,100%);fill-opacity:1;" d="M 157.25 52.75 L 156.75 50.5 C 154.25 52.25 152 53.25 148.75 53.25 C 144 53.25 141.75 50 141.75 46.25 C 141.75 40.25 146.5 37.25 156.75 36 L 156.75 33.75 C 156.75 31.75 155.25 30.75 153 30.75 C 150 30.75 148.5 32.25 147.25 34 L 143.25 31 C 144.75 28.25 149.25 26.25 153 26.25 C 160 26.5 163 29 163 36.75 L 163 49 C 163 50.25 163 51.5 163.5 52.75 Z M 156.75 40.5 C 152.5 41.25 148 42.25 148 45.75 C 148 47.75 149.25 48.75 151 48.75 C 153 48.75 155.5 47 156.75 46 Z M 156.75 40.5 "/>
<path style=" stroke:none;fill-rule:nonzero;fill:rgb(100%,100%,100%);fill-opacity:1;" d="M 183.5 35.25 C 182.5 33 181.5 31.25 178.5 31.25 C 175 31.25 173.5 34 173.5 39.75 C 173.5 45.5 175.25 48.25 178.75 48.25 C 181.5 48.25 183 46.5 184.25 44 L 189 46.75 C 186.5 51.5 183.25 53.25 178.5 53.25 C 171.5 53.25 167.25 48 167.25 39.75 C 167.25 31.5 171.5 26.25 178.5 26.25 C 183.5 26.25 187.25 28.75 188.75 33.25 Z M 183.5 35.25 "/>
<path style=" stroke:none;fill-rule:nonzero;fill:rgb(100%,100%,100%);fill-opacity:1;" d="M 208.5 35.25 C 207.5 33 206.5 31.25 203.5 31.25 C 200 31.25 198.5 34 198.5 39.75 C 198.5 45.5 200.25 48.25 203.75 48.25 C 206.5 48.25 208 46.5 209.25 44 L 214 46.75 C 211.5 51.5 208.25 53.25 203.5 53.25 C 196.5 53.25 192.25 48 192.25 39.75 C 192.25 31.5 196.5 26.25 203.5 26.25 C 208.5 26.25 212.25 28.75 213.75 33.25 Z M 208.5 35.25 "/>
<path style=" stroke:none;fill-rule:nonzero;fill:rgb(100%,100%,100%);fill-opacity:1;" d="M 223.5 40.75 C 223.5 46.25 226 48.25 229 48.25 C 232 48.25 233.25 47 234.75 45.25 L 239.25 48 C 236.75 51.75 233.25 53.25 228.25 53.25 C 221.5 53.25 217.25 48 217.25 39.75 C 217.25 31.5 221.5 26.25 228.5 26.25 C 235.25 26.25 239 32 239 38.25 L 239 40.75 Z M 233.5 36.75 C 233.5 33.25 231.5 31 228.5 31 C 225.5 31 223.5 33 223.5 36.75 Z M 233.5 36.75 "/>
<path style=" stroke:none;fill-rule:nonzero;fill:rgb(100%,100%,100%);fill-opacity:1;" d="M 257 33.75 C 255.75 32.5 254 31 252.25 31 C 249.75 31 248.75 32 248.75 33.5 C 248.75 38 261.75 36 261.75 45.5 C 261.75 51 257.75 53.25 252.25 53.25 C 248 53.25 244.75 51.5 242.5 48 L 246.75 45 C 248.25 47 250.25 48.75 252.75 48.75 C 255 48.75 256.5 47.5 256.5 45.75 C 256.5 41.25 243.5 43 243.5 33.75 C 243.5 29 247.5 26.25 252 26.25 C 255.5 26.25 259 27.5 261.25 30.25 Z M 257 33.75 "/>
<path style=" stroke:none;fill-rule:nonzero;fill:rgb(100%,100%,100%);fill-opacity:1;" d="M 279.25 33.75 C 278 32.5 276.25 31 274.5 31 C 272 31 271 32 271 33.5 C 271 38 284 36 284 45.5 C 284 51 280 53.25 274.5 53.25 C 270.25 53.25 267 51.5 264.75 48 L 269 45 C 270.5 47 272.5 48.75 275 48.75 C 277.25 48.75 278.75 47.5 278.75 45.75 C 278.75 41.25 265.75 43 265.75 33.75 C 265.75 29 269.75 26.25 274.25 26.25 C 277.75 26.25 281.25 27.5 283.5 30.25 Z M 279.25 33.75 "/>
</g>
</svg>
