<?xml version="1.0" encoding="UTF-8"?>
<svg xmlns="http://www.w3.org/2000/svg" xmlns:xlink="http://www.w3.org/1999/xlink" width="px" height="px" viewBox="0 0 388 73" version="1.1">
<g id="surface1">
<path style=" stroke:none;fill-rule:nonzero;fill:rgb(100%,100%,100%);fill-opacity:1;" d="M 85.699219 61 L 102.882812 61 C 115.550781 61 123.476562 57.660156 123.476562 47.125 C 123.476562 37.773438 117.179688 34.511719 109.179688 34.363281 L 109.179688 32.582031 C 114.585938 32.210938 119.625 29.09375 119.625 21.527344 C 119.625 11.210938 112.289062 8.6875 99.550781 8.6875 L 85.699219 8.6875 Z M 91.773438 31.171875 L 91.773438 13.882812 L 99.773438 13.882812 C 108.289062 13.882812 113.550781 14.402344 113.550781 22.488281 C 113.550781 29.910156 108.289062 31.171875 99.773438 31.171875 Z M 91.773438 55.804688 L 91.773438 36.363281 L 103.105469 36.363281 C 111.992188 36.363281 117.402344 38.441406 117.402344 46.085938 C 117.402344 54.320312 111.992188 55.804688 103.105469 55.804688 Z M 141.433594 18.261719 C 144.394531 18.261719 146.765625 16.035156 146.765625 13.066406 C 146.765625 10.246094 144.394531 7.945312 141.433594 7.945312 C 138.394531 7.945312 136.101562 10.246094 136.101562 13.066406 C 136.101562 16.035156 138.394531 18.261719 141.433594 18.261719 Z M 129.136719 61 L 155.582031 61 L 155.582031 55.804688 L 145.210938 55.804688 L 145.210938 27.832031 C 145.210938 25.011719 143.878906 23.082031 140.394531 23.378906 L 131.878906 24.121094 L 131.878906 29.316406 L 139.507812 28.648438 L 139.507812 55.804688 L 129.136719 55.804688 Z M 169.996094 56.621094 L 169.996094 29.316406 L 181.476562 29.316406 L 181.476562 24.121094 L 169.996094 24.121094 L 169.996094 12.769531 L 163.996094 14.625 L 163.996094 24.121094 L 155.851562 24.121094 L 155.851562 29.316406 L 163.996094 29.316406 L 163.996094 56.695312 C 163.996094 60.109375 165.554688 61.964844 169.035156 61.742188 L 182.960938 61 L 182.960938 55.804688 Z M 190.855469 34.808594 C 190.855469 50.09375 199.96875 61.742188 215.300781 61.742188 C 228.632812 61.742188 237.375 53.726562 238.929688 40.742188 L 232.855469 40.742188 C 231.671875 50.757812 225.523438 56.546875 215.300781 56.546875 C 203.152344 56.546875 196.929688 47.496094 196.929688 34.808594 C 196.929688 22.191406 203.152344 13.140625 215.300781 13.140625 C 225.523438 13.140625 231.671875 18.855469 232.855469 28.871094 L 238.929688 28.871094 C 237.375 15.960938 228.632812 7.945312 215.300781 7.945312 C 199.96875 7.945312 190.855469 19.597656 190.855469 34.808594 Z M 242.398438 61 L 269.0625 61 L 269.0625 55.804688 L 258.769531 55.804688 L 258.769531 10.839844 C 258.769531 7.355469 257.136719 5.425781 253.730469 5.722656 L 245.136719 6.464844 L 245.136719 11.65625 L 252.769531 10.988281 L 252.769531 55.804688 L 242.398438 55.804688 Z M 273.230469 42.523438 C 273.230469 53.28125 280.933594 61.742188 292.710938 61.742188 C 304.414062 61.742188 312.046875 53.28125 312.046875 42.523438 C 312.046875 31.839844 304.414062 23.378906 292.710938 23.378906 C 280.933594 23.378906 273.230469 31.839844 273.230469 42.523438 Z M 279.304688 42.523438 C 279.304688 34.882812 283.972656 28.574219 292.710938 28.574219 C 301.378906 28.574219 306.046875 34.882812 306.046875 42.523438 C 306.046875 50.242188 301.378906 56.546875 292.710938 56.546875 C 283.972656 56.546875 279.304688 50.242188 279.304688 42.523438 Z M 335.167969 56.546875 C 328.796875 56.546875 325.832031 53.578125 325.832031 45.863281 L 325.832031 24.121094 L 319.757812 24.121094 L 319.757812 46.679688 C 319.757812 56.917969 325.167969 61.742188 333.539062 61.742188 C 341.535156 61.742188 346.203125 57.066406 347.683594 50.386719 L 349.390625 50.386719 L 348.425781 54.617188 L 348.425781 61 L 354.425781 61 L 354.425781 24.121094 L 348.425781 24.121094 L 348.425781 40.519531 C 348.425781 50.386719 342.945312 56.546875 335.167969 56.546875 Z M 374.996094 56.621094 L 374.996094 29.316406 L 386.480469 29.316406 L 386.480469 24.121094 L 374.996094 24.121094 L 374.996094 12.769531 L 369 14.625 L 369 24.121094 L 360.851562 24.121094 L 360.851562 29.316406 L 369 29.316406 L 369 56.695312 C 369 60.109375 370.554688 61.964844 374.035156 61.742188 L 387.960938 61 L 387.960938 55.804688 Z M 374.996094 56.621094 "/>
<path style=" stroke:none;fill-rule:evenodd;fill:rgb(100%,100%,100%);fill-opacity:1;" d="M 3.769531 43.136719 L 3.300781 42.582031 C 3.296875 42.574219 3.292969 42.566406 3.289062 42.558594 C 3.386719 42.78125 3.546875 42.980469 3.769531 43.136719 Z M 3.769531 43.136719 "/>
<path style="fill:none;stroke-width:5.66848;stroke-linecap:butt;stroke-linejoin:miter;stroke:rgb(100%,100%,100%);stroke-opacity:1;stroke-miterlimit:4;" d="M 6.544217 84.534193 C 5.9613 83.238442 6.404317 81.585777 7.826635 80.848673 L 30.506 69.070527 L 36.171956 66.12211 M 101.24106 81.834065 C 102.422439 81.834065 103.090851 83.207406 102.352489 84.130726 L 56.93158 141.500696 C 56.37198 142.199005 55.314957 142.222282 54.739812 141.539491 L 7.500201 85.682524 Z M 7.298123 81.834065 C 6.093428 81.834065 5.440561 83.246201 6.217784 84.169521 L 6.567534 84.580747 Z M 7.500201 85.682524 L 6.567534 84.580747 Z M 7.500201 85.682524 C 7.057184 85.372164 6.738523 84.976455 6.544217 84.534193 Z M 7.500201 85.682524 C 7.072729 85.387682 6.76184 84.999732 6.567534 84.580747 Z M 7.500201 85.682524 C 7.562379 85.729077 7.624557 85.767872 7.694507 85.806667 L 52.967743 112.458797 C 53.869322 112.994167 54.996295 112.978649 55.890101 112.43552 L 102.0416 84.169521 C 103.96134 82.990154 103.805896 80.158123 101.777344 79.188249 L 78.748228 68.217038 L 75.864731 66.843696 Z M 6.567534 84.580747 C 6.559762 84.565229 6.551989 84.549711 6.544217 84.534193 Z M 6.567534 84.580747 " transform="matrix(0.502591,0,0,0.503448,0,0)"/>
<path style="fill:none;stroke-width:5.66848;stroke-linecap:butt;stroke-linejoin:miter;stroke:rgb(100%,100%,100%);stroke-opacity:1;stroke-miterlimit:4;" d="M 101.24106 28.669467 C 102.422439 28.669467 103.090851 30.035049 102.352489 30.966128 L 56.93158 88.328339 C 56.37198 89.034407 55.314957 89.049925 54.739812 88.367134 L 6.217784 30.997164 C 5.440561 30.073844 6.093428 28.669467 7.298123 28.669467 Z M 101.777344 26.023652 L 55.71134 4.07347 C 54.910801 3.693279 53.978133 3.708797 53.185366 4.120024 L 7.826635 27.676316 C 5.844716 28.708262 5.774766 31.509257 7.694507 32.634311 L 52.967743 59.28644 C 53.877094 59.821811 54.996295 59.814052 55.890101 59.263164 L 102.0416 30.997164 C 103.96134 29.817798 103.813668 26.985766 101.777344 26.023652 Z M 101.777344 26.023652 " transform="matrix(0.502591,0,0,0.503448,0,0)"/>
</g>
</svg>
