<?xml version="1.0" encoding="UTF-8"?>
<svg xmlns="http://www.w3.org/2000/svg" xmlns:xlink="http://www.w3.org/1999/xlink" width="px" height="px" viewBox="0 0 440 72" version="1.1">
<g id="surface1">
<path style=" stroke:none;fill-rule:evenodd;fill:rgb(100%,100%,100%);fill-opacity:1;" d="M 50.46875 46.335938 C 50.46875 60.210938 42.015625 72 25.363281 72 L 25.101562 72 C 8.460938 72 0 60.199219 0 46.335938 C 0 32.460938 16.5 12.472656 16.5 12.472656 C 16.5 12.472656 23.75 4.617188 25.09375 0.363281 L 25.355469 0.363281 C 26.679688 4.617188 33.945312 12.472656 33.945312 12.472656 C 33.945312 12.472656 50.46875 32.460938 50.46875 46.335938 Z M 36.449219 49.804688 C 36.449219 55.761719 32.695312 60.816406 25.308594 60.816406 L 25.1875 60.816406 C 17.800781 60.816406 14.046875 55.761719 14.046875 49.804688 C 14.046875 43.859375 21.375 35.277344 21.375 35.277344 C 21.375 35.277344 24.664062 31.695312 25.1875 29.675781 L 25.308594 29.675781 C 25.832031 31.683594 29.117188 35.277344 29.117188 35.277344 C 29.117188 35.277344 36.449219 43.847656 36.449219 49.804688 Z M 36.449219 49.804688 "/>
<path style=" stroke:none;fill-rule:evenodd;fill:rgb(100%,100%,100%);fill-opacity:1;" d="M 126.035156 45.972656 C 126.035156 59.84375 117.585938 71.636719 100.933594 71.636719 L 100.664062 71.636719 C 84.023438 71.636719 75.558594 59.84375 75.558594 45.972656 C 75.558594 32.097656 92.070312 12.109375 92.070312 12.109375 C 92.070312 12.109375 99.328125 4.246094 100.664062 0 L 100.925781 0 C 102.25 4.253906 109.515625 12.109375 109.515625 12.109375 C 109.515625 12.109375 126.035156 32.097656 126.035156 45.972656 Z M 112.019531 49.441406 C 112.019531 55.394531 108.265625 60.453125 100.878906 60.453125 L 100.757812 60.453125 C 93.371094 60.453125 89.613281 55.394531 89.613281 49.441406 C 89.613281 43.484375 96.945312 34.902344 96.945312 34.902344 C 96.945312 34.902344 100.234375 31.3125 100.757812 29.300781 L 100.878906 29.300781 C 101.402344 31.3125 104.6875 34.902344 104.6875 34.902344 C 104.6875 34.902344 112.019531 43.484375 112.019531 49.441406 Z M 112.019531 49.441406 "/>
<path style=" stroke:none;fill-rule:evenodd;fill:rgb(100%,100%,100%);fill-opacity:1;" d="M 88.046875 46.335938 C 88.046875 60.210938 79.59375 72 62.945312 72 L 62.671875 72 C 46.03125 72 37.570312 60.199219 37.570312 46.335938 C 37.570312 32.460938 54.082031 12.472656 54.082031 12.472656 C 54.082031 12.472656 61.328125 4.617188 62.671875 0.363281 L 62.933594 0.363281 C 64.261719 4.617188 71.527344 12.472656 71.527344 12.472656 C 71.527344 12.472656 88.046875 32.460938 88.046875 46.335938 Z M 74.027344 49.804688 C 74.027344 55.761719 70.273438 60.816406 62.886719 60.816406 L 62.765625 60.816406 C 55.378906 60.816406 51.625 55.761719 51.625 49.804688 C 51.625 43.859375 58.957031 35.277344 58.957031 35.277344 C 58.957031 35.277344 62.242188 31.695312 62.765625 29.675781 L 62.886719 29.675781 C 63.410156 31.683594 66.699219 35.277344 66.699219 35.277344 C 66.699219 35.277344 74.027344 43.847656 74.027344 49.804688 Z M 74.027344 49.804688 "/>
<path style=" stroke:none;fill-rule:nonzero;fill:rgb(100%,100%,100%);fill-opacity:1;" d="M 145.164062 8.695312 L 166.195312 8.695312 C 174.382812 8.695312 180.472656 9.910156 184.441406 12.351562 C 188.410156 14.789062 190.398438 18.578125 190.398438 23.730469 C 190.398438 27.113281 189.53125 30.003906 187.804688 32.394531 C 186.074219 34.789062 183.789062 36.332031 180.957031 37.015625 L 180.957031 37.425781 C 184.703125 38.417969 187.402344 40.070312 189.082031 42.382812 C 190.753906 44.691406 191.59375 47.691406 191.59375 51.382812 C 191.59375 56.855469 189.539062 61.171875 185.433594 64.324219 C 181.324219 67.484375 175.71875 69.054688 168.632812 69.054688 L 145.164062 69.054688 Z M 161.449219 31.855469 L 166.351562 31.855469 C 168.6875 31.855469 170.5 31.367188 171.777344 30.414062 C 173.058594 29.449219 173.691406 28.019531 173.691406 26.121094 C 173.691406 22.738281 171.132812 21.046875 166.015625 21.046875 L 161.441406 21.046875 L 161.441406 31.855469 Z M 161.449219 43.792969 L 161.449219 56.46875 L 167.183594 56.46875 C 172.273438 56.46875 174.8125 54.328125 174.8125 50.027344 C 174.8125 48.019531 174.132812 46.476562 172.769531 45.402344 C 171.40625 44.324219 169.433594 43.792969 166.847656 43.792969 Z M 161.449219 43.792969 "/>
<path style=" stroke:none;fill-rule:nonzero;fill:rgb(100%,100%,100%);fill-opacity:1;" d="M 242.359375 45.558594 C 242.359375 53.21875 240.304688 59.183594 236.195312 63.453125 C 232.089844 67.738281 226.335938 69.878906 218.9375 69.878906 C 211.851562 69.878906 206.203125 67.691406 202.015625 63.316406 C 197.824219 58.9375 195.730469 53.019531 195.730469 45.558594 C 195.730469 37.941406 197.785156 32.011719 201.894531 27.785156 C 206.003906 23.5625 211.765625 21.449219 219.191406 21.449219 C 223.785156 21.449219 227.839844 22.429688 231.359375 24.375 C 234.878906 26.328125 237.597656 29.132812 239.503906 32.777344 C 241.40625 36.433594 242.359375 40.699219 242.359375 45.558594 Z M 212.09375 45.558594 C 212.09375 49.578125 212.625 52.636719 213.699219 54.75 C 214.773438 56.855469 216.578125 57.910156 219.097656 57.910156 C 221.601562 57.910156 223.367188 56.855469 224.402344 54.75 C 225.429688 52.648438 225.953125 49.578125 225.953125 45.558594 C 225.953125 41.566406 225.429688 38.558594 224.382812 36.519531 C 223.335938 34.480469 221.554688 33.460938 219.023438 33.460938 C 216.546875 33.460938 214.773438 34.472656 213.699219 36.492188 C 212.625 38.519531 212.09375 41.550781 212.09375 45.558594 Z M 212.09375 45.558594 "/>
<path style=" stroke:none;fill-rule:nonzero;fill:rgb(100%,100%,100%);fill-opacity:1;" d="M 277.671875 69.054688 L 277.671875 43.539062 C 277.671875 40.425781 277.222656 38.082031 276.328125 36.5 C 275.429688 34.921875 274 34.125 272.019531 34.125 C 269.304688 34.125 267.332031 35.210938 266.128906 37.386719 C 264.914062 39.566406 264.316406 43.296875 264.316406 48.578125 L 264.316406 69.054688 L 248.1875 69.054688 L 248.1875 22.28125 L 260.355469 22.28125 L 262.382812 28.058594 L 263.328125 28.058594 C 264.699219 25.851562 266.605469 24.207031 269.042969 23.101562 C 271.46875 22 274.273438 21.449219 277.4375 21.449219 C 282.601562 21.449219 286.625 22.945312 289.503906 25.945312 C 292.378906 28.945312 293.816406 33.171875 293.816406 38.613281 L 293.816406 69.046875 L 277.671875 69.046875 Z M 277.671875 69.054688 "/>
<path style=" stroke:none;fill-rule:nonzero;fill:rgb(100%,100%,100%);fill-opacity:1;" d="M 329.921875 34.378906 L 319.984375 34.378906 L 319.984375 69.054688 L 303.855469 69.054688 L 303.855469 34.378906 L 297.675781 34.378906 L 297.675781 26.449219 L 304.191406 22.484375 L 304.191406 21.699219 C 304.191406 15.539062 305.453125 11.105469 307.964844 8.40625 C 310.488281 5.710938 314.523438 4.355469 320.078125 4.355469 C 322.21875 4.355469 324.242188 4.515625 326.160156 4.851562 C 328.0625 5.179688 330.296875 5.757812 332.816406 6.582031 L 329.351562 17.023438 C 327.371094 16.472656 325.4375 16.203125 323.535156 16.203125 C 322.300781 16.203125 321.394531 16.578125 320.835938 17.332031 C 320.265625 18.089844 319.984375 19.324219 319.984375 21.027344 L 319.984375 22.261719 L 329.921875 22.261719 Z M 335.9375 10.640625 C 335.9375 8.21875 336.609375 6.414062 337.953125 5.226562 C 339.296875 4.046875 341.472656 3.449219 344.472656 3.449219 C 347.46875 3.449219 349.65625 4.058594 351.027344 5.265625 C 352.402344 6.46875 353.089844 8.265625 353.089844 10.628906 C 353.089844 15.359375 350.214844 17.734375 344.472656 17.734375 C 338.785156 17.734375 335.9375 15.371094 335.9375 10.640625 Z M 352.476562 69.054688 L 336.355469 69.054688 L 336.355469 22.28125 L 352.476562 22.28125 Z M 352.476562 69.054688 "/>
<path style=" stroke:none;fill-rule:nonzero;fill:rgb(100%,100%,100%);fill-opacity:1;" d="M 388.523438 21.457031 C 389.925781 21.457031 391.257812 21.570312 392.519531 21.785156 L 393.425781 21.953125 L 391.988281 37.183594 C 390.671875 36.855469 388.839844 36.6875 386.503906 36.6875 C 382.984375 36.6875 380.425781 37.492188 378.839844 39.097656 C 377.242188 40.707031 376.449219 43.035156 376.449219 46.054688 L 376.449219 69.046875 L 360.320312 69.046875 L 360.320312 22.28125 L 372.3125 22.28125 L 374.832031 29.75 L 375.617188 29.75 C 376.960938 27.273438 378.839844 25.273438 381.25 23.738281 C 383.648438 22.214844 386.078125 21.457031 388.523438 21.457031 Z M 388.523438 21.457031 "/>
<path style=" stroke:none;fill-rule:nonzero;fill:rgb(100%,100%,100%);fill-opacity:1;" d="M 419.125 69.878906 C 411.347656 69.878906 405.304688 67.8125 401 63.660156 C 396.695312 59.519531 394.546875 53.617188 394.546875 45.972656 C 394.546875 38.070312 396.542969 32.011719 400.523438 27.785156 C 404.511719 23.5625 410.199219 21.449219 417.59375 21.449219 C 424.636719 21.449219 430.070312 23.289062 433.910156 26.953125 C 437.75 30.628906 439.664062 35.921875 439.664062 42.828125 L 439.664062 50.011719 L 410.832031 50.011719 C 410.945312 52.628906 411.898438 54.675781 413.699219 56.160156 C 415.503906 57.648438 417.960938 58.386719 421.058594 58.386719 C 423.890625 58.386719 426.496094 58.117188 428.875 57.582031 C 431.257812 57.050781 433.835938 56.132812 436.609375 54.835938 L 436.609375 66.4375 C 434.078125 67.726562 431.460938 68.625 428.773438 69.121094 C 426.074219 69.632812 422.863281 69.878906 419.125 69.878906 Z M 418.171875 32.433594 C 416.277344 32.433594 414.691406 33.03125 413.410156 34.226562 C 412.132812 35.425781 411.382812 37.304688 411.160156 39.867188 L 425.007812 39.867188 C 424.953125 37.613281 424.320312 35.808594 423.09375 34.460938 C 421.882812 33.105469 420.238281 32.433594 418.171875 32.433594 Z M 418.171875 32.433594 "/>
</g>
</svg>
