<?xml version="1.0" encoding="UTF-8"?>
<svg xmlns="http://www.w3.org/2000/svg" xmlns:xlink="http://www.w3.org/1999/xlink" width="px" height="px" viewBox="0 0 112 72" version="1.1">
<g id="surface1">
<path style=" stroke:none;fill-rule:nonzero;fill:rgb(100%,100%,100%);fill-opacity:1;" d="M 34.046875 58.054688 L 33.839844 58.253906 C 30.617188 61.539062 26.886719 63.273438 23.042969 63.273438 C 15.019531 63.273438 9.195312 57.253906 9.195312 48.949219 C 9.195312 40.65625 15.019531 34.625 23.042969 34.625 C 26.886719 34.625 30.617188 36.371094 33.839844 39.667969 L 34.046875 39.863281 L 39.207031 33.621094 L 39.070312 33.457031 C 34.777344 28.382812 29.625 25.917969 23.292969 25.917969 C 16.945312 25.917969 11.132812 28.058594 6.953125 31.910156 C 2.394531 36.085938 0 41.976562 0 48.949219 C 0 55.921875 2.394531 61.824219 6.953125 66 C 11.132812 69.875 16.945312 72 23.292969 72 C 29.625 72 34.777344 69.53125 39.070312 64.457031 L 39.207031 64.300781 Z M 34.046875 58.054688 "/>
<path style=" stroke:none;fill-rule:nonzero;fill:rgb(100%,100%,100%);fill-opacity:1;" d="M 44.421875 71.148438 L 53.539062 71.148438 L 53.539062 26.636719 L 44.421875 26.636719 Z M 44.421875 71.148438 "/>
<path style=" stroke:none;fill-rule:nonzero;fill:rgb(100%,100%,100%);fill-opacity:1;" d="M 89.253906 61.472656 C 86.820312 62.953125 84.558594 63.703125 82.523438 63.703125 C 79.578125 63.703125 78.242188 62.144531 78.242188 58.679688 L 78.242188 35.058594 L 87.535156 35.058594 L 87.535156 26.679688 L 78.242188 26.679688 L 78.242188 12.832031 L 69.308594 17.617188 L 69.308594 26.679688 L 61.597656 26.679688 L 61.597656 35.058594 L 69.308594 35.058594 L 69.308594 60.183594 C 69.308594 67.023438 73.363281 71.707031 79.417969 71.828125 C 83.527344 71.910156 86.003906 70.683594 87.507812 69.785156 L 87.601562 69.726562 L 89.792969 61.140625 Z M 89.253906 61.472656 "/>
<path style=" stroke:none;fill-rule:nonzero;fill:rgb(100%,100%,100%);fill-opacity:1;" d="M 96.800781 71.148438 L 105.929688 71.148438 L 105.929688 26.636719 L 96.800781 26.636719 Z M 96.800781 71.148438 "/>
<path style=" stroke:none;fill-rule:nonzero;fill:rgb(100%,100%,100%);fill-opacity:1;" d="M 111.246094 18.835938 C 102.917969 7.039062 89.085938 0 75.011719 0 C 60.945312 0 47.109375 7.039062 38.792969 18.835938 L 38.363281 19.441406 L 48.851562 19.441406 L 48.96875 19.316406 C 56.105469 11.945312 65.429688 8.050781 75.011719 8.050781 C 84.597656 8.050781 93.914062 11.945312 101.066406 19.316406 L 101.179688 19.441406 L 111.664062 19.441406 Z M 111.246094 18.835938 "/>
</g>
</svg>
