<?xml version="1.0" encoding="UTF-8"?>
<svg xmlns="http://www.w3.org/2000/svg" xmlns:xlink="http://www.w3.org/1999/xlink" width="px" height="px" viewBox="0 0 306 72" version="1.1">
<g id="surface1">
<path style=" stroke:none;fill-rule:evenodd;fill:rgb(100%,100%,100%);fill-opacity:1;" d="M 0 65.511719 C 0 69.449219 2.554688 72 6.492188 72 L 25.457031 72 C 36.769531 72 46.023438 68.171875 52.316406 61.476562 L 0 61.476562 Z M 25.457031 0 L 6.492188 0 C 2.554688 0 0 2.554688 0 6.488281 L 0 10.523438 L 52.316406 10.523438 C 46.023438 3.828125 36.769531 0 25.457031 0 Z M 42.007812 46.257812 C 42.007812 49.441406 44.082031 51.507812 47.28125 51.507812 L 58.644531 51.507812 C 59.933594 48.3125 60.796875 44.800781 61.199219 41.007812 L 47.28125 41.007812 C 44.082031 41.007812 42.007812 43.074219 42.007812 46.257812 Z M 26.253906 25.765625 C 26.253906 28.949219 28.328125 31.015625 31.527344 31.015625 L 61.199219 31.015625 C 60.796875 27.226562 59.933594 23.710938 58.644531 20.515625 L 31.527344 20.515625 C 28.328125 20.515625 26.253906 22.582031 26.253906 25.765625 Z M 31.523438 46.257812 C 31.523438 43.074219 29.449219 41.007812 26.25 41.007812 L 0 41.007812 L 0 51.507812 L 26.25 51.507812 C 29.449219 51.507812 31.523438 49.441406 31.523438 46.257812 Z M 15.773438 25.765625 C 15.773438 22.582031 13.699219 20.515625 10.5 20.515625 L 0 20.515625 L 0 31.015625 L 10.5 31.015625 C 13.699219 31.015625 15.773438 28.949219 15.773438 25.765625 Z M 15.773438 25.765625 "/>
<path style=" stroke:none;fill-rule:evenodd;fill:rgb(100%,100%,100%);fill-opacity:1;" d="M 133.460938 34.914062 C 134.304688 30.808594 137.035156 28.71875 140.621094 28.71875 C 144.179688 28.71875 146.78125 30.902344 147.609375 34.914062 Z M 140.816406 21.601562 C 131.683594 21.601562 126 28.914062 126 37.863281 C 126 47.128906 132.070312 54 141.097656 54 C 147.320312 54 151.097656 51.117188 153.433594 47.484375 L 147.621094 43.765625 C 146.160156 45.765625 143.824219 46.820312 141.320312 46.820312 C 137.222656 46.820312 134.476562 44.898438 133.542969 41.050781 L 148.875 41.050781 C 148.875 41.058594 148.875 41.0625 148.871094 41.066406 L 154.464844 41.101562 C 154.675781 40.089844 154.800781 39.042969 154.800781 37.863281 C 154.800781 30.066406 150.007812 21.601562 140.816406 21.601562 Z M 140.816406 21.601562 "/>
<path style=" stroke:none;fill-rule:evenodd;fill:rgb(100%,100%,100%);fill-opacity:1;" d="M 102.601562 46.800781 C 96.980469 46.800781 93.601562 42.769531 93.601562 37.800781 C 93.601562 32.828125 97.042969 28.800781 102.601562 28.800781 C 108.15625 28.800781 111.601562 32.828125 111.601562 37.800781 C 111.601562 42.769531 108.222656 46.800781 102.601562 46.800781 Z M 110.988281 26.355469 C 108.742188 23.660156 105.554688 22.007812 101.601562 22.007812 C 92.757812 22.007812 86.398438 29.171875 86.398438 38.003906 C 86.398438 46.839844 92.699219 54 101.601562 54 C 105.554688 54 108.742188 52.347656 110.988281 49.652344 L 110.988281 53.210938 L 118.800781 53.210938 L 118.800781 10.800781 L 110.988281 10.800781 Z M 110.988281 26.355469 "/>
<path style=" stroke:none;fill-rule:evenodd;fill:rgb(100%,100%,100%);fill-opacity:1;" d="M 178.691406 37.269531 C 180.8125 38.75 182.15625 40.972656 182.15625 43.902344 C 182.15625 49.828125 178.164062 53.941406 170.695312 53.941406 C 163.667969 53.941406 159.902344 50.339844 158.398438 46.703125 L 164.851562 42.9375 C 164.851562 42.9375 165.71875 46.867188 170.578125 46.867188 C 173.589844 46.867188 174.515625 45.535156 174.515625 44.359375 C 174.515625 43.816406 174.34375 42.816406 172.199219 41.96875 C 167.898438 40.269531 159.582031 39.507812 159.582031 31.75 C 159.582031 25.402344 164.558594 22.019531 170.695312 22.019531 C 176.433594 22.019531 180.121094 25.589844 181.519531 28.367188 L 175.210938 32.054688 C 175.210938 32.054688 173.996094 28.96875 170.753906 28.96875 C 167.511719 28.96875 167.222656 30.84375 167.222656 31.390625 C 167.222656 32.976562 168.839844 33.628906 172.316406 34.652344 C 174.375 35.261719 176.488281 35.8125 178.699219 37.261719 C 178.695312 37.265625 178.695312 37.265625 178.691406 37.269531 Z M 306 30.359375 L 299.460938 30.359375 L 299.460938 42.9375 C 299.460938 46.867188 303.28125 46.019531 306 46.019531 L 306 53.09375 C 306 53.09375 304.566406 53.335938 302.066406 53.335938 C 296.507812 53.335938 291.992188 51.640625 291.992188 42.9375 L 291.992188 30.359375 L 286.957031 30.359375 L 286.957031 22.863281 L 291.992188 22.863281 L 291.992188 14.398438 L 299.460938 14.398438 L 299.460938 22.863281 L 306 22.863281 Z M 200.71875 46.320312 C 203.816406 46.320312 206.199219 44.777344 207.402344 42.246094 L 213.875 46.121094 C 211.339844 50.765625 206.613281 54 200.71875 54 C 191.777344 54 185.523438 46.855469 185.523438 38.039062 C 185.523438 29.222656 191.835938 22.078125 200.71875 22.078125 C 206.527344 22.078125 211.234375 25.257812 213.800781 29.84375 L 207.339844 33.808594 C 206.113281 31.308594 203.75 29.757812 200.71875 29.757812 C 196.199219 29.757812 192.992188 33.464844 192.992188 38.039062 C 192.992188 42.613281 196.171875 46.320312 200.71875 46.320312 Z M 200.71875 46.320312 "/>
<path style=" stroke:none;fill-rule:evenodd;fill:rgb(100%,100%,100%);fill-opacity:1;" d="M 269.359375 46.238281 C 264.496094 46.238281 261.570312 42.449219 261.570312 37.769531 C 261.570312 33.09375 264.550781 29.300781 269.359375 29.300781 C 274.164062 29.300781 277.148438 33.09375 277.148438 37.769531 C 277.148438 42.449219 274.222656 46.238281 269.359375 46.238281 Z M 270.285156 21.914062 C 278.496094 21.914062 284.398438 29.011719 284.398438 37.769531 C 284.398438 46.527344 278.550781 53.628906 270.285156 53.628906 C 266.613281 53.628906 263.65625 51.988281 261.570312 49.316406 L 261.570312 64.800781 L 254.316406 64.800781 L 254.316406 22.753906 L 261.570312 22.753906 L 261.570312 26.222656 C 263.65625 23.550781 266.613281 21.914062 270.285156 21.914062 Z M 240.371094 52.847656 L 240.371094 22.8125 L 247.625 22.8125 L 247.625 52.847656 Z M 226.851562 27.945312 C 228.253906 24.304688 231.105469 22.222656 235.402344 22.214844 L 235.402344 30.863281 C 230.363281 30.355469 226.726562 33.027344 226.859375 39.347656 C 226.859375 39.34375 226.855469 39.335938 226.851562 39.332031 L 226.851562 52.847656 L 219.601562 52.847656 L 219.601562 22.8125 L 226.851562 22.8125 Z M 240.371094 18.804688 L 240.371094 10.800781 L 247.863281 10.800781 L 247.863281 18.804688 Z M 240.371094 18.804688 "/>
</g>
</svg>
