<?xml version="1.0" encoding="UTF-8"?>
<svg xmlns="http://www.w3.org/2000/svg" xmlns:xlink="http://www.w3.org/1999/xlink" width="px" height="px" viewBox="0 0 287 72" version="1.1">
<g id="surface1">
<path style=" stroke:none;fill-rule:nonzero;fill:rgb(100%,100%,100%);fill-opacity:1;" d="M 37.222656 38.042969 C 32.511719 38.042969 28.769531 39.941406 26.125 43.671875 C 24.574219 40.792969 21.476562 38.042969 16.765625 38.042969 C 11.925781 38.042969 9.089844 40.203125 7.089844 42.492188 L 7.089844 41.839844 C 7.089844 39.941406 5.539062 38.371094 3.667969 38.371094 C 1.796875 38.371094 0.3125 39.941406 0.3125 41.839844 L 0.3125 68.207031 C 0.3125 70.101562 1.796875 71.609375 3.667969 71.609375 C 5.539062 71.609375 7.089844 70.101562 7.089844 68.207031 L 7.089844 49.953125 C 8.636719 47.402344 10.960938 44.523438 15.152344 44.523438 C 19.15625 44.523438 20.703125 46.484375 20.703125 51.589844 L 20.703125 68.207031 C 20.703125 70.101562 22.1875 71.609375 24.058594 71.609375 C 25.929688 71.609375 27.480469 70.101562 27.480469 68.207031 L 27.480469 49.953125 C 29.027344 47.402344 31.351562 44.523438 35.542969 44.523438 C 39.546875 44.523438 41.09375 46.484375 41.09375 51.589844 L 41.09375 68.207031 C 41.09375 70.101562 42.578125 71.609375 44.449219 71.609375 C 46.320312 71.609375 47.871094 70.101562 47.871094 68.207031 L 47.871094 50.476562 C 48 44.457031 44.644531 38.042969 37.222656 38.042969 Z M 37.222656 38.042969 "/>
<path style=" stroke:none;fill-rule:nonzero;fill:rgb(100%,100%,100%);fill-opacity:1;" d="M 69.742188 38.042969 C 66 38.042969 62.582031 38.765625 59.03125 40.335938 C 57.804688 40.859375 57.03125 41.90625 57.03125 43.277344 C 57.03125 44.980469 58.324219 46.289062 59.9375 46.289062 C 60.195312 46.289062 60.515625 46.222656 60.902344 46.15625 C 63.292969 45.371094 65.550781 44.71875 68.777344 44.71875 C 74.003906 44.71875 76.195312 46.679688 76.261719 51.523438 L 69.550781 51.523438 C 60.386719 51.523438 54.96875 55.511719 54.96875 62.121094 C 54.96875 68.597656 60.257812 72 65.484375 72 C 69.679688 72 73.292969 70.691406 76.261719 68.207031 L 76.261719 68.269531 C 76.261719 70.167969 77.746094 71.671875 79.617188 71.671875 C 81.488281 71.671875 83.035156 70.167969 83.035156 68.269531 L 83.035156 50.867188 C 83.035156 44.457031 78.90625 38.042969 69.742188 38.042969 Z M 67.550781 65.652344 C 63.742188 65.652344 61.742188 64.214844 61.742188 61.402344 C 61.742188 60.355469 61.742188 57.214844 70.261719 57.214844 L 76.195312 57.214844 L 76.195312 61.46875 C 74.453125 63.429688 71.164062 65.652344 67.550781 65.652344 Z M 67.550781 65.652344 "/>
<path style=" stroke:none;fill-rule:nonzero;fill:rgb(100%,100%,100%);fill-opacity:1;" d="M 96.328125 25.746094 L 95.941406 25.746094 C 93.878906 25.746094 92.199219 27.445312 92.199219 29.539062 L 92.199219 29.800781 C 92.199219 31.894531 93.878906 33.597656 95.941406 33.597656 L 96.328125 33.597656 C 98.394531 33.597656 100.070312 31.894531 100.070312 29.800781 L 100.070312 29.539062 C 100.070312 27.445312 98.394531 25.746094 96.328125 25.746094 Z M 96.328125 25.746094 "/>
<path style=" stroke:none;fill-rule:nonzero;fill:rgb(100%,100%,100%);fill-opacity:1;" d="M 96.136719 38.304688 C 94.265625 38.304688 92.78125 39.808594 92.78125 41.773438 L 92.78125 68.140625 C 92.78125 70.035156 94.265625 71.542969 96.136719 71.542969 C 98.070312 71.542969 99.554688 70.035156 99.554688 68.140625 L 99.554688 41.773438 C 99.554688 39.875 98.070312 38.304688 96.136719 38.304688 Z M 96.136719 38.304688 "/>
<path style=" stroke:none;fill-rule:nonzero;fill:rgb(100%,100%,100%);fill-opacity:1;" d="M 113.363281 24.761719 C 111.492188 24.761719 110.007812 26.269531 110.007812 28.230469 L 110.007812 68.140625 C 110.007812 70.035156 111.492188 71.542969 113.363281 71.542969 C 115.300781 71.542969 116.785156 70.035156 116.785156 68.140625 L 116.785156 28.230469 C 116.785156 26.332031 115.300781 24.761719 113.363281 24.761719 Z M 113.363281 24.761719 "/>
<path style=" stroke:none;fill-rule:nonzero;fill:rgb(100%,100%,100%);fill-opacity:1;" d="M 140.273438 38.042969 C 135.433594 38.042969 131.433594 39.875 128.722656 43.34375 C 126.398438 46.355469 125.109375 50.476562 125.109375 54.988281 C 125.109375 65.589844 131.238281 71.933594 141.433594 71.933594 C 147.046875 71.933594 149.824219 70.625 152.339844 69.121094 C 153.566406 68.402344 154.210938 67.355469 154.210938 66.308594 C 154.210938 64.609375 152.855469 63.234375 151.113281 63.234375 C 150.597656 63.234375 150.144531 63.300781 149.757812 63.558594 C 147.949219 64.542969 145.691406 65.390625 141.886719 65.390625 C 136.207031 65.390625 132.851562 62.710938 132.011719 57.605469 L 151.824219 57.605469 C 153.824219 57.605469 155.242188 56.167969 155.242188 54.203125 C 155.371094 43.082031 147.5625 38.042969 140.273438 38.042969 Z M 140.273438 44.0625 C 143.113281 44.0625 147.886719 45.699219 148.53125 51.71875 L 132.011719 51.71875 C 132.65625 46.417969 136.53125 44.0625 140.273438 44.0625 Z M 140.273438 44.0625 "/>
<path style=" stroke:none;fill-rule:nonzero;fill:rgb(100%,100%,100%);fill-opacity:1;" d="M 178.925781 38.042969 L 178.601562 38.042969 C 175.375 38.042969 172.40625 39.613281 169.695312 42.625 L 169.695312 41.773438 C 169.695312 39.875 168.148438 38.304688 166.277344 38.304688 C 164.40625 38.304688 162.921875 39.875 162.921875 41.773438 L 162.921875 68.140625 C 162.921875 70.039062 164.40625 71.542969 166.277344 71.542969 C 168.148438 71.542969 169.695312 70.039062 169.695312 68.140625 L 169.695312 49.625 C 171.890625 46.417969 174.988281 44.652344 178.472656 44.652344 L 178.796875 44.652344 C 180.796875 44.652344 182.214844 43.277344 182.214844 41.382812 C 182.214844 39.484375 180.796875 38.042969 178.925781 38.042969 Z M 178.925781 38.042969 "/>
<path style=" stroke:none;fill-rule:evenodd;fill:rgb(100%,100%,100%);fill-opacity:1;" d="M 206.816406 0 L 276.640625 0 C 282.085938 0 286.480469 4.371094 286.546875 9.78125 L 286.546875 48.785156 C 286.546875 54.132812 282.085938 58.566406 276.703125 58.566406 L 210.558594 58.566406 L 196.972656 71.9375 L 196.972656 9.78125 C 196.972656 4.433594 201.4375 0 206.816406 0 Z M 215.28125 46.371094 C 216.726562 46.371094 217.90625 45.261719 217.90625 43.828125 L 217.90625 16.109375 C 217.90625 14.675781 216.726562 13.5 215.28125 13.5 C 213.839844 13.5 212.722656 14.675781 212.722656 16.109375 L 212.722656 43.828125 C 212.722656 45.195312 213.839844 46.371094 215.28125 46.371094 Z M 230.113281 43.828125 C 230.113281 45.261719 228.933594 46.371094 227.488281 46.371094 C 226.046875 46.371094 224.929688 45.195312 224.929688 43.828125 L 224.929688 25.5 C 224.929688 24.066406 226.046875 22.890625 227.488281 22.890625 C 228.933594 22.890625 230.113281 24.066406 230.113281 25.5 Z M 227.621094 19.957031 C 229.195312 19.957031 230.441406 18.714844 230.441406 17.152344 L 230.441406 16.957031 C 230.441406 15.390625 229.195312 14.152344 227.621094 14.152344 L 227.355469 14.152344 C 225.78125 14.152344 224.535156 15.390625 224.535156 16.957031 L 224.535156 17.152344 C 224.535156 18.714844 225.78125 19.957031 227.355469 19.957031 Z M 248.945312 45.785156 C 247.699219 46.371094 246.453125 46.632812 245.074219 46.632812 C 240.546875 46.632812 238.117188 44.480469 238.117188 40.371094 L 238.117188 27.78125 L 235.757812 27.78125 C 234.902344 27.78125 234.3125 27.132812 234.3125 26.347656 C 234.3125 25.890625 234.511719 25.433594 234.902344 25.109375 L 240.679688 19.433594 C 240.808594 19.304688 241.269531 18.847656 241.859375 18.847656 C 242.710938 18.847656 243.304688 19.5 243.304688 20.347656 L 243.304688 23.085938 L 247.503906 23.085938 C 248.816406 23.085938 249.867188 24.132812 249.867188 25.433594 C 249.867188 26.738281 248.816406 27.78125 247.503906 27.78125 L 243.367188 27.78125 L 243.367188 40.042969 C 243.367188 41.804688 244.289062 41.9375 245.535156 41.9375 C 246.078125 41.9375 246.433594 41.863281 246.746094 41.796875 C 246.847656 41.777344 246.945312 41.757812 247.042969 41.738281 C 247.144531 41.71875 247.246094 41.695312 247.347656 41.667969 C 247.578125 41.605469 247.820312 41.542969 248.09375 41.542969 C 249.144531 41.542969 250.324219 42.390625 250.324219 43.761719 C 250.257812 44.609375 249.800781 45.390625 248.945312 45.785156 Z M 261.347656 41.160156 C 264 41.160156 265.488281 40.578125 266.78125 39.9375 C 267.105469 39.742188 267.429688 39.679688 267.816406 39.679688 C 269.113281 39.679688 270.148438 40.707031 270.148438 41.996094 C 270.148438 42.832031 269.628906 43.601562 268.722656 44.117188 C 266.914062 45.144531 264.972656 46.046875 260.960938 46.046875 C 253.710938 46.046875 249.3125 41.609375 249.3125 34.214844 C 249.3125 25.53125 255.136719 22.378906 260.117188 22.378906 C 267.496094 22.378906 270.859375 28.230469 270.859375 33.632812 C 270.859375 35.113281 269.757812 36.140625 268.269531 36.140625 L 254.683594 36.140625 C 255.328125 39.421875 257.660156 41.160156 261.347656 41.160156 Z M 260.183594 26.945312 C 257.722656 26.945312 255.136719 28.425781 254.683594 31.835938 L 265.746094 31.835938 C 265.230469 28.425781 262.640625 26.945312 260.183594 26.945312 Z M 260.183594 26.945312 "/>
</g>
</svg>
