<?xml version="1.0" encoding="UTF-8"?>
<svg xmlns="http://www.w3.org/2000/svg" xmlns:xlink="http://www.w3.org/1999/xlink" width="px" height="px" viewBox="0 0 452 73" version="1.1">
<g id="surface1">
<path style=" stroke:none;fill-rule:nonzero;fill:rgb(100%,100%,100%);fill-opacity:1;" d="M 112.675781 54.023438 L 112.675781 29.132812 L 128.925781 54.023438 L 134.515625 54.023438 L 134.515625 23.542969 L 130.199219 23.542969 L 130.199219 47.671875 L 113.945312 23.289062 L 108.359375 23.289062 L 108.359375 53.769531 L 112.675781 53.769531 Z M 162.703125 54.785156 C 165.9375 55.007812 169.160156 54.191406 171.902344 52.457031 C 174.640625 50.71875 176.757812 48.15625 177.9375 45.132812 C 178.445312 43.355469 178.953125 41.070312 178.953125 38.78125 C 178.953125 36.242188 178.445312 34.210938 177.683594 32.179688 C 176.902344 30.261719 175.730469 28.527344 174.246094 27.082031 C 172.761719 25.640625 170.992188 24.523438 169.050781 23.796875 C 167.015625 23.074219 164.863281 22.730469 162.703125 22.78125 C 160.5625 22.636719 158.414062 22.949219 156.402344 23.691406 C 154.386719 24.4375 152.554688 25.597656 151.019531 27.097656 C 149.75 28.371094 148.480469 30.148438 147.71875 32.179688 C 146.957031 34.210938 146.449219 36.242188 146.449219 38.78125 C 146.449219 41.324219 146.957031 43.355469 147.71875 45.132812 C 148.457031 47.066406 149.582031 48.828125 151.019531 50.3125 C 152.460938 51.796875 154.191406 52.972656 156.097656 53.769531 C 158.132812 54.53125 160.417969 54.785156 162.703125 54.785156 Z M 162.703125 50.976562 C 160.925781 50.976562 159.402344 50.722656 157.878906 49.957031 C 156.523438 49.351562 155.308594 48.476562 154.304688 47.386719 C 153.300781 46.292969 152.527344 45.007812 152.035156 43.609375 C 151.234375 41.355469 151.023438 38.9375 151.421875 36.578125 C 151.824219 34.222656 152.820312 32.007812 154.320312 30.148438 C 155.339844 28.878906 156.355469 28.113281 157.878906 27.605469 C 159.402344 26.84375 160.925781 26.335938 162.703125 26.335938 C 164.480469 26.335938 166.003906 26.84375 167.527344 27.351562 C 169.050781 28.113281 170.066406 28.878906 171.082031 29.894531 L 173.621094 33.957031 C 174.128906 35.480469 174.382812 37.003906 174.382812 38.78125 C 174.382812 40.308594 174.128906 42.085938 173.621094 43.609375 L 171.082031 47.417969 C 170.066406 48.433594 169.050781 49.449219 167.527344 49.957031 C 166.003906 50.722656 164.480469 50.976562 162.449219 50.976562 Z M 202.570312 54.023438 L 214.507812 23.542969 L 209.933594 23.542969 L 200.792969 48.433594 L 191.398438 23.542969 L 186.574219 23.542969 L 198.507812 54.023438 Z M 224.410156 54.023438 L 227.457031 46.402344 L 241.933594 46.402344 L 244.980469 54.023438 L 250.058594 54.023438 L 236.855469 23.542969 L 232.535156 23.542969 L 219.332031 54.023438 Z M 240.410156 42.847656 L 228.980469 42.847656 L 234.566406 28.371094 Z M 286.878906 54.53125 C 289.417969 54.53125 291.957031 54.023438 293.992188 53.007812 C 295.769531 51.992188 297.292969 50.722656 298.5625 49.195312 L 295.261719 46.65625 C 294.246094 48.179688 293.230469 49.195312 291.703125 49.703125 C 290.179688 50.464844 288.65625 50.722656 286.878906 50.722656 C 285.101562 50.722656 283.578125 50.722656 282.308594 49.957031 C 280.875 49.367188 279.585938 48.472656 278.53125 47.332031 C 277.480469 46.191406 276.6875 44.832031 276.214844 43.355469 C 275.089844 40.234375 275.089844 36.820312 276.214844 33.703125 C 276.722656 32.179688 277.738281 31.164062 278.753906 29.894531 C 279.789062 28.6875 281.074219 27.71875 282.523438 27.0625 C 283.96875 26.402344 285.542969 26.070312 287.132812 26.082031 C 288.65625 26.082031 290.179688 26.589844 291.449219 27.097656 C 292.972656 27.859375 293.992188 28.625 294.753906 29.640625 L 298.054688 27.097656 L 296.023438 25.066406 C 293.378906 23.351562 290.285156 22.464844 287.132812 22.527344 C 284.886719 22.445312 282.648438 22.789062 280.53125 23.542969 C 278.5 24.304688 276.976562 25.574219 275.453125 26.84375 C 273.929688 28.371094 272.914062 29.894531 271.898438 31.925781 C 271.136719 33.957031 270.882812 35.988281 270.882812 38.527344 C 270.882812 41.070312 271.136719 43.101562 271.898438 44.878906 C 273.078125 47.902344 275.195312 50.464844 277.933594 52.203125 C 280.675781 53.9375 283.898438 54.753906 287.132812 54.53125 Z M 313.542969 53.769531 L 313.542969 40.308594 L 318.113281 40.308594 L 325.734375 53.769531 L 330.8125 53.769531 L 322.433594 39.800781 C 324.71875 39.292969 326.496094 38.527344 327.765625 37.257812 C 328.460938 36.511719 329 35.632812 329.347656 34.671875 C 329.695312 33.710938 329.847656 32.691406 329.796875 31.671875 C 329.796875 30.148438 329.796875 28.878906 329.035156 27.605469 C 328.527344 26.589844 327.765625 25.828125 326.496094 25.066406 C 325.496094 24.363281 324.375 23.847656 323.195312 23.542969 L 318.875 23.289062 L 309.226562 23.289062 L 309.226562 53.769531 Z M 318.367188 36.496094 L 313.289062 36.496094 L 313.289062 26.84375 L 321.160156 26.84375 L 323.703125 27.859375 L 324.972656 29.386719 C 325.480469 29.894531 325.480469 30.65625 325.480469 31.671875 C 325.480469 32.6875 325.480469 33.449219 324.972656 34.210938 C 324.71875 34.71875 324.210938 35.226562 323.449219 35.480469 L 321.160156 36.242188 Z M 362.300781 53.769531 L 362.300781 50.214844 L 346.046875 50.214844 L 346.046875 40.054688 L 360.523438 40.054688 L 360.523438 36.496094 L 346.046875 36.496094 L 346.046875 27.097656 L 361.539062 27.097656 L 361.539062 23.289062 L 341.984375 23.289062 L 341.984375 53.769531 Z M 384.648438 53.769531 C 386.425781 53.769531 388.457031 53.769531 390.488281 53.007812 C 392.519531 52.246094 394.296875 51.484375 395.566406 50.214844 C 397.355469 48.847656 398.796875 47.074219 399.765625 45.042969 C 400.738281 43.011719 401.214844 40.78125 401.152344 38.527344 C 401.152344 35.988281 400.644531 33.449219 399.628906 31.671875 C 398.613281 29.640625 397.34375 28.113281 395.820312 26.589844 C 392.515625 24.359375 388.636719 23.125 384.648438 23.035156 L 373.980469 23.035156 L 373.980469 53.769531 Z M 383.632812 50.214844 L 378.554688 50.214844 L 378.554688 26.84375 L 383.632812 26.84375 C 385.664062 26.84375 387.1875 27.097656 388.710938 27.605469 C 390.488281 28.113281 391.757812 28.878906 392.773438 29.894531 C 394.042969 30.910156 394.804688 32.179688 395.3125 33.449219 C 396.023438 35.003906 396.390625 36.691406 396.390625 38.402344 C 396.390625 40.109375 396.023438 41.800781 395.3125 43.355469 C 394.769531 44.800781 393.898438 46.105469 392.773438 47.164062 L 388.710938 49.195312 C 387.1875 49.703125 385.410156 50.214844 383.632812 50.214844 Z M 417.40625 53.769531 L 417.40625 23.289062 L 413.089844 23.289062 L 413.089844 53.769531 Z M 441.785156 53.769531 L 441.785156 26.84375 L 451.6875 26.84375 L 451.6875 23.289062 L 427.5625 23.289062 L 427.5625 26.84375 L 437.46875 26.84375 L 437.46875 53.769531 Z M 441.785156 53.769531 "/>
<path style="fill:none;stroke-width:5.04738;stroke-linecap:butt;stroke-linejoin:miter;stroke:rgb(100%,100%,100%);stroke-opacity:1;stroke-miterlimit:4;" d="M 65.942219 3.879495 L 129.005237 38.694082 L 129.005237 107.811162 L 65.942219 142.113656 L 2.8792 107.811162 L 2.8792 38.694082 Z M 65.942219 3.879495 " transform="matrix(0.503341,0,0,0.503448,0,0)"/>
<path style="fill:none;stroke-width:5.04738;stroke-linecap:butt;stroke-linejoin:round;stroke:rgb(100%,100%,100%);stroke-opacity:1;stroke-miterlimit:4;" d="M 2.8792 107.811162 L 65.942219 7.417594 L 129.005237 107.811162 L 2.8792 38.694082 L 65.942219 142.121415 L 129.005237 39.198416 Z M 2.8792 107.811162 " transform="matrix(0.503341,0,0,0.503448,0,0)"/>
</g>
</svg>
