<?xml version="1.0" encoding="UTF-8"?>
<svg xmlns="http://www.w3.org/2000/svg" xmlns:xlink="http://www.w3.org/1999/xlink" width="px" height="px" viewBox="0 0 276 72" version="1.1">
<g id="surface1">
<path style=" stroke:none;fill-rule:nonzero;fill:rgb(100%,100%,100%);fill-opacity:1;" d="M 31.617188 64.832031 C 31.453125 64.832031 31.285156 64.816406 31.136719 64.789062 L 31.136719 64.878906 L 30.539062 64.578125 C 21.980469 60.417969 11.117188 51.488281 7.808594 43.136719 C 7.71875 42.929688 7.644531 42.71875 7.585938 42.507812 C 7.511719 42.285156 7.4375 42.089844 7.375 41.878906 C 7.300781 41.640625 7.242188 41.445312 7.195312 41.25 C 7.136719 41.011719 7.09375 40.816406 7.046875 40.625 C 7.003906 40.382812 6.957031 40.191406 6.925781 39.996094 C 6.882812 39.742188 6.851562 39.546875 6.824219 39.367188 C 6.792969 39.113281 6.777344 38.917969 6.761719 38.738281 C 6.75 38.484375 6.734375 38.289062 6.734375 38.09375 C 6.734375 37.839844 6.734375 37.644531 6.734375 37.464844 C 6.75 37.210938 6.761719 37.015625 6.777344 36.839844 C 6.808594 36.597656 6.824219 36.402344 6.851562 36.210938 C 6.882812 35.984375 6.925781 35.789062 6.957031 35.582031 C 7.003906 35.355469 7.0625 35.164062 7.105469 34.953125 C 7.585938 33.246094 8.46875 31.644531 9.769531 30.195312 C 11.984375 27.695312 15.007812 26.363281 18.492188 26.347656 L 19.542969 26.378906 C 24.285156 26.722656 28.894531 29.445312 31.015625 33.15625 C 31.09375 33.261719 31.347656 33.53125 31.617188 33.5625 C 31.871094 33.546875 32.125 33.246094 32.167969 33.171875 L 32.183594 33.15625 C 34.324219 29.460938 38.917969 26.738281 43.644531 26.394531 L 44.691406 26.363281 C 48.179688 26.378906 51.203125 27.710938 53.417969 30.210938 C 54.703125 31.675781 55.601562 33.261719 56.066406 34.953125 C 56.109375 35.148438 56.167969 35.355469 56.214844 35.550781 C 56.257812 35.777344 56.289062 35.96875 56.320312 36.164062 C 56.363281 36.402344 56.378906 36.582031 56.394531 36.777344 C 56.410156 37.015625 56.425781 37.210938 56.4375 37.40625 C 56.453125 37.644531 56.453125 37.839844 56.453125 38.035156 L 56.453125 38.09375 C 56.453125 38.289062 56.4375 38.46875 56.425781 38.664062 C 56.410156 38.917969 56.394531 39.113281 56.363281 39.308594 C 56.335938 39.546875 56.304688 39.742188 56.273438 39.933594 C 56.230469 40.191406 56.199219 40.382812 56.15625 40.578125 C 56.09375 40.832031 56.050781 41.027344 56.003906 41.222656 C 55.945312 41.460938 55.886719 41.671875 55.824219 41.867188 C 55.75 42.105469 55.691406 42.300781 55.617188 42.507812 C 55.539062 42.734375 55.464844 42.941406 55.375 43.136719 C 52.070312 51.5 41.207031 60.433594 32.648438 64.59375 L 32.050781 64.894531 L 32.050781 64.804688 C 31.929688 64.816406 31.765625 64.832031 31.617188 64.832031 Z M 16.773438 19.453125 C 21.742188 14.484375 26.214844 10.625 30.480469 7.601562 C 30.507812 7.570312 30.554688 7.542969 30.597656 7.511719 L 30.898438 7.210938 L 30.988281 7.332031 C 31.183594 7.273438 31.390625 7.242188 31.617188 7.242188 C 31.945312 7.242188 32.257812 7.316406 32.515625 7.4375 L 32.527344 7.4375 L 32.632812 7.496094 C 32.691406 7.542969 32.738281 7.570312 32.78125 7.601562 C 37.003906 10.578125 41.492188 14.46875 46.472656 19.4375 L 47.238281 20.199219 L 46.144531 20.140625 C 45.800781 20.125 45.457031 20.109375 45.128906 20.109375 C 40.023438 20.066406 35.925781 21.742188 32.46875 25.257812 C 32.335938 25.453125 32.003906 25.585938 31.632812 25.585938 C 31.257812 25.585938 30.914062 25.453125 30.75 25.210938 C 27.382812 21.785156 23.328125 20.09375 18.375 20.09375 C 18.300781 20.09375 18.210938 20.09375 18.121094 20.09375 C 17.777344 20.09375 17.429688 20.109375 17.085938 20.125 L 16.011719 20.183594 Z M 63.203125 38.035156 C 63.21875 37.855469 63.21875 37.675781 63.230469 37.480469 L 63.246094 37.167969 C 63.230469 27.964844 53.609375 17.851562 51.679688 15.921875 C 49.273438 13.496094 38.289062 3.097656 32.542969 0.195312 C 32.347656 0.0898438 32.050781 0.015625 31.617188 0 C 31.183594 0 30.867188 0.0898438 30.734375 0.164062 C 24.941406 3.097656 13.960938 13.496094 11.550781 15.90625 C 9.621094 17.835938 0 27.949219 0 37.078125 C 0 37.078125 0.015625 37.78125 0.03125 38.003906 C 0.882812 49.644531 10.9375 60.703125 30.777344 71.804688 C 30.957031 71.910156 31.242188 71.984375 31.617188 72 C 32.003906 72 32.289062 71.910156 32.425781 71.835938 C 52.292969 60.746094 62.335938 49.691406 63.203125 38.035156 Z M 63.203125 38.035156 "/>
<path style=" stroke:none;fill-rule:nonzero;fill:rgb(100%,100%,100%);fill-opacity:1;" d="M 33.933594 39.140625 C 33.832031 39.066406 33.710938 38.992188 33.589844 38.933594 C 33.007812 38.617188 32.335938 38.425781 31.628906 38.425781 L 31.601562 38.425781 C 30.882812 38.425781 30.222656 38.617188 29.640625 38.933594 C 29.519531 38.992188 29.417969 39.066406 29.296875 39.140625 C 29.070312 39.292969 28.878906 39.457031 28.683594 39.636719 C 27.933594 40.339844 27.472656 41.265625 27.472656 42.089844 C 27.472656 42.195312 27.472656 42.300781 27.484375 42.390625 C 27.53125 43.167969 27.753906 43.71875 28.113281 44.167969 C 28.203125 44.289062 28.308594 44.394531 28.414062 44.484375 C 28.5625 44.632812 28.742188 44.769531 28.9375 44.902344 L 29.070312 44.992188 C 29.222656 45.082031 29.25 45.664062 29.132812 46.28125 L 29.085938 46.535156 C 28.96875 47.148438 28.789062 48.148438 28.667969 48.761719 L 27.710938 53.835938 C 27.589844 54.449219 28.011719 54.957031 28.652344 54.957031 L 34.625 54.957031 C 35.25 54.957031 35.6875 54.449219 35.566406 53.835938 L 34.609375 48.761719 C 34.488281 48.148438 34.292969 47.148438 34.1875 46.535156 L 34.144531 46.28125 C 34.023438 45.664062 34.054688 45.082031 34.203125 44.992188 L 34.324219 44.902344 C 34.519531 44.769531 34.699219 44.632812 34.847656 44.484375 C 34.953125 44.378906 35.058594 44.273438 35.148438 44.167969 C 35.507812 43.71875 35.730469 43.167969 35.777344 42.390625 C 35.777344 42.300781 35.777344 42.195312 35.777344 42.089844 C 35.777344 41.265625 35.3125 40.339844 34.5625 39.636719 C 34.355469 39.441406 34.160156 39.292969 33.933594 39.140625 Z M 33.933594 39.140625 "/>
<path style=" stroke:none;fill-rule:nonzero;fill:rgb(100%,100%,100%);fill-opacity:1;" d="M 72.359375 49.015625 C 72.359375 48.058594 72.867188 47.234375 73.871094 46.5625 C 74.347656 46.234375 74.902344 46.054688 75.53125 46.054688 C 76.398438 46.054688 77.191406 46.414062 77.910156 47.144531 C 79.347656 48.777344 80.902344 50.003906 82.5625 50.8125 C 84.222656 51.636719 86.199219 52.039062 88.503906 52.039062 C 90.328125 51.992188 91.945312 51.574219 93.335938 50.78125 C 94.726562 49.988281 95.429688 48.703125 95.429688 46.921875 C 95.429688 45.289062 94.714844 44.035156 93.304688 43.179688 C 91.886719 42.3125 89.804688 41.519531 87.066406 40.800781 C 84.375 40.082031 82.144531 39.320312 80.363281 38.527344 C 78.582031 37.734375 77.085938 36.582031 75.859375 35.070312 C 74.632812 33.558594 74.019531 31.570312 74.019531 29.132812 C 74.019531 26.976562 74.632812 25.078125 75.859375 23.429688 C 77.085938 21.800781 78.71875 20.527344 80.769531 19.613281 C 82.804688 18.703125 85.03125 18.238281 87.441406 18.238281 C 89.746094 18.238281 92.035156 18.671875 94.324219 19.539062 C 96.613281 20.40625 98.46875 21.726562 99.90625 23.503906 C 100.488281 24.179688 100.773438 24.867188 100.773438 25.601562 C 100.773438 26.363281 100.382812 27.109375 99.621094 27.828125 C 99.140625 28.261719 98.542969 28.472656 97.808594 28.472656 C 96.941406 28.472656 96.253906 28.1875 95.714844 27.605469 C 94.714844 26.453125 93.472656 25.554688 92.003906 24.941406 C 90.539062 24.3125 88.921875 24 87.140625 24 C 85.316406 24 83.761719 24.375 82.488281 25.121094 C 81.21875 25.871094 80.574219 27.125 80.574219 28.90625 C 80.617188 30.597656 81.351562 31.839844 82.773438 32.664062 C 84.195312 33.484375 86.363281 34.277344 89.296875 35.042969 C 91.839844 35.714844 93.964844 36.433594 95.640625 37.210938 C 97.316406 37.972656 98.738281 39.125 99.890625 40.636719 C 101.042969 42.148438 101.625 44.136719 101.625 46.59375 C 101.625 48.851562 100.984375 50.8125 99.679688 52.472656 C 98.378906 54.132812 96.6875 55.40625 94.59375 56.289062 C 92.5 57.171875 90.285156 57.621094 87.921875 57.621094 C 84.898438 57.621094 82.085938 57.097656 79.527344 56.035156 C 76.953125 54.988281 74.78125 53.296875 73.003906 50.992188 C 72.582031 50.289062 72.359375 49.628906 72.359375 49.015625 Z M 72.359375 49.015625 "/>
<path style=" stroke:none;fill-rule:nonzero;fill:rgb(100%,100%,100%);fill-opacity:1;" d="M 143.777344 19.570312 C 144.417969 20.214844 144.746094 21.066406 144.746094 22.128906 L 144.746094 53.414062 C 144.746094 54.375 144.417969 55.195312 143.777344 55.871094 C 143.132812 56.542969 142.292969 56.871094 141.292969 56.871094 C 140.273438 56.871094 139.464844 56.542969 138.839844 55.898438 C 138.210938 55.257812 137.894531 54.417969 137.894531 53.414062 L 137.894531 51.546875 C 136.652344 53.234375 134.949219 54.65625 132.777344 55.839844 C 130.625 57.007812 128.289062 57.605469 125.789062 57.605469 C 122.511719 57.605469 119.550781 56.765625 116.886719 55.078125 C 114.222656 53.402344 112.128906 51.050781 110.617188 48.042969 C 109.105469 45.035156 108.34375 41.671875 108.34375 37.914062 C 108.34375 34.175781 109.105469 30.792969 110.617188 27.785156 C 112.128906 24.777344 114.210938 22.441406 116.859375 20.753906 C 119.507812 19.0625 122.410156 18.222656 125.582031 18.222656 C 128.125 18.222656 130.488281 18.746094 132.671875 19.808594 C 134.859375 20.871094 136.609375 22.21875 137.894531 23.851562 L 137.894531 22.113281 C 137.894531 21.097656 138.210938 20.257812 138.839844 19.585938 C 139.453125 18.910156 140.273438 18.566406 141.292969 18.566406 C 142.292969 18.597656 143.132812 18.910156 143.777344 19.570312 Z M 132.597656 49.511719 C 134.347656 48.359375 135.726562 46.773438 136.699219 44.753906 C 137.6875 42.734375 138.179688 40.457031 138.179688 37.898438 C 138.179688 35.402344 137.6875 33.140625 136.699219 31.121094 C 135.710938 29.101562 134.347656 27.5 132.597656 26.332031 C 130.847656 25.152344 128.84375 24.566406 126.582031 24.566406 C 124.324219 24.566406 122.320312 25.152344 120.570312 26.304688 C 118.816406 27.457031 117.441406 29.042969 116.46875 31.0625 C 115.480469 33.082031 114.988281 35.355469 114.988281 37.914062 C 114.988281 40.457031 115.480469 42.746094 116.46875 44.765625 C 117.457031 46.789062 118.816406 48.375 120.570312 49.527344 C 122.320312 50.675781 124.324219 51.261719 126.582031 51.261719 C 128.84375 51.246094 130.847656 50.664062 132.597656 49.511719 Z M 132.597656 49.511719 "/>
<path style=" stroke:none;fill-rule:nonzero;fill:rgb(100%,100%,100%);fill-opacity:1;" d="M 168.015625 11.179688 C 167.265625 12.136719 166.894531 13.320312 166.894531 14.710938 L 166.894531 19.753906 L 174.03125 19.753906 C 174.988281 19.753906 175.765625 20.050781 176.378906 20.648438 C 176.976562 21.25 177.277344 22.011719 177.277344 22.925781 C 177.277344 23.835938 176.976562 24.585938 176.378906 25.152344 C 175.78125 25.722656 175.003906 26.023438 174.03125 26.023438 L 166.894531 26.023438 L 166.894531 53.417969 C 166.894531 54.375 166.5625 55.199219 165.921875 55.871094 C 165.277344 56.546875 164.4375 56.875 163.4375 56.875 C 162.480469 56.875 161.671875 56.546875 161.027344 55.871094 C 160.367188 55.199219 160.054688 54.375 160.054688 53.417969 L 160.054688 26.023438 L 155.582031 26.023438 C 154.667969 26.023438 153.890625 25.738281 153.277344 25.152344 C 152.648438 24.570312 152.335938 23.835938 152.335938 22.925781 C 152.335938 22.011719 152.648438 21.25 153.277344 20.648438 C 153.90625 20.050781 154.667969 19.753906 155.582031 19.753906 L 160.054688 19.753906 L 160.054688 14.710938 C 160.054688 11.34375 161.132812 8.664062 163.300781 6.675781 C 165.457031 4.683594 168.507812 3.683594 172.460938 3.683594 C 174.089844 3.683594 175.539062 3.980469 176.78125 4.582031 C 178.039062 5.179688 178.652344 6.078125 178.652344 7.289062 C 178.652344 8.203125 178.367188 8.964844 177.832031 9.5625 C 177.277344 10.160156 176.617188 10.460938 175.839844 10.460938 C 175.644531 10.460938 175.121094 10.355469 174.253906 10.175781 C 173.191406 9.890625 172.28125 9.742188 171.515625 9.742188 C 169.914062 9.726562 168.746094 10.207031 168.015625 11.179688 Z M 168.015625 11.179688 "/>
<path style=" stroke:none;fill-rule:nonzero;fill:rgb(100%,100%,100%);fill-opacity:1;" d="M 215.640625 38.738281 C 214.96875 39.335938 214.175781 39.636719 213.261719 39.636719 L 187.886719 39.636719 C 188.214844 43.136719 189.546875 45.949219 191.878906 48.074219 C 194.214844 50.183594 197.058594 51.246094 200.425781 51.246094 C 202.726562 51.246094 204.597656 50.917969 206.050781 50.230469 C 207.488281 49.554688 208.757812 48.6875 209.867188 47.640625 C 210.582031 47.207031 211.285156 46.996094 211.960938 46.996094 C 212.78125 46.996094 213.457031 47.28125 214.011719 47.863281 C 214.5625 48.449219 214.832031 49.121094 214.832031 49.886719 C 214.832031 50.886719 214.355469 51.816406 213.398438 52.621094 C 212.003906 54.015625 210.148438 55.195312 207.84375 56.152344 C 205.539062 57.113281 203.175781 57.589844 200.78125 57.589844 C 196.894531 57.589844 193.464844 56.765625 190.503906 55.136719 C 187.554688 53.503906 185.265625 51.214844 183.652344 48.285156 C 182.035156 45.351562 181.242188 42.03125 181.242188 38.332031 C 181.242188 34.292969 182.066406 30.746094 183.726562 27.695312 C 185.386719 24.644531 187.570312 22.308594 190.28125 20.664062 C 192.988281 19.03125 195.921875 18.210938 199.03125 18.210938 C 202.113281 18.210938 204.988281 19.003906 207.679688 20.589844 C 210.375 22.175781 212.527344 24.359375 214.175781 27.140625 C 215.804688 29.925781 216.644531 33.050781 216.703125 36.507812 C 216.671875 37.40625 216.3125 38.140625 215.640625 38.738281 Z M 192.074219 26.84375 C 190.101562 28.355469 188.8125 30.703125 188.183594 33.875 L 209.445312 33.875 L 209.445312 33.292969 C 209.207031 30.746094 208.070312 28.652344 206.019531 27.023438 C 203.984375 25.390625 201.664062 24.566406 199.0625 24.566406 C 196.367188 24.582031 194.050781 25.332031 192.074219 26.84375 Z M 192.074219 26.84375 "/>
<path style=" stroke:none;fill-rule:nonzero;fill:rgb(100%,100%,100%);fill-opacity:1;" d="M 231.753906 55.855469 C 231.082031 56.527344 230.257812 56.855469 229.300781 56.855469 C 228.34375 56.855469 227.535156 56.527344 226.894531 55.855469 C 226.25 55.179688 225.921875 54.359375 225.921875 53.402344 L 225.921875 6.988281 C 225.921875 6.027344 226.25 5.207031 226.921875 4.53125 C 227.597656 3.859375 228.417969 3.53125 229.375 3.53125 C 230.335938 3.53125 231.140625 3.859375 231.785156 4.53125 C 232.429688 5.207031 232.757812 6.027344 232.757812 6.988281 L 232.757812 53.402344 C 232.757812 54.371094 232.429688 55.179688 231.753906 55.855469 Z M 231.753906 55.855469 "/>
<path style=" stroke:none;fill-rule:nonzero;fill:rgb(100%,100%,100%);fill-opacity:1;" d="M 274.816406 19.75 C 275.460938 20.421875 275.789062 21.246094 275.789062 22.203125 L 275.789062 53.339844 C 275.789062 59.339844 274.128906 63.84375 270.824219 66.820312 C 267.515625 69.800781 263.132812 71.296875 257.699219 71.296875 C 255.921875 71.296875 254.167969 71.132812 252.433594 70.789062 C 250.699219 70.441406 249.292969 69.996094 248.183594 69.410156 C 246.402344 68.589844 245.519531 67.496094 245.519531 66.089844 C 245.519531 65.847656 245.566406 65.535156 245.671875 65.148438 C 245.953125 64.324219 246.359375 63.710938 246.898438 63.277344 C 247.421875 62.84375 248.019531 62.632812 248.695312 62.632812 C 249.082031 62.632812 249.441406 62.707031 249.769531 62.84375 C 251.265625 63.515625 252.582031 64.039062 253.734375 64.429688 C 254.886719 64.816406 256.234375 64.996094 257.777344 64.996094 C 265.226562 64.996094 268.953125 61.179688 268.953125 53.535156 L 268.953125 52.097656 C 267.652344 53.835938 265.988281 55.179688 263.941406 56.140625 C 261.890625 57.097656 259.554688 57.574219 256.90625 57.574219 C 252.914062 57.574219 249.816406 56.304688 247.570312 53.761719 C 245.339844 51.214844 244.21875 47.878906 244.21875 43.734375 L 244.21875 22.1875 C 244.21875 21.1875 244.535156 20.347656 245.160156 19.707031 C 245.789062 19.0625 246.597656 18.734375 247.617188 18.734375 C 248.617188 18.734375 249.457031 19.0625 250.101562 19.734375 C 250.757812 20.410156 251.074219 21.230469 251.074219 22.1875 L 251.074219 41.941406 C 251.074219 45.113281 251.761719 47.445312 253.167969 48.972656 C 254.558594 50.484375 256.667969 51.246094 259.511719 51.246094 C 262.25 51.246094 264.507812 50.378906 266.289062 48.65625 C 268.070312 46.921875 268.953125 44.691406 268.953125 41.953125 L 268.953125 22.203125 C 268.953125 21.203125 269.265625 20.363281 269.894531 19.71875 C 270.523438 19.078125 271.332031 18.746094 272.347656 18.746094 C 273.335938 18.734375 274.160156 19.078125 274.816406 19.75 Z M 274.816406 19.75 "/>
</g>
</svg>
