<?xml version="1.0" encoding="UTF-8"?>
<svg xmlns="http://www.w3.org/2000/svg" xmlns:xlink="http://www.w3.org/1999/xlink" width="px" height="px" viewBox="0 0 563 73" version="1.1">
<g id="surface1">
<path style=" stroke:none;fill-rule:evenodd;fill:rgb(100%,100%,100%);fill-opacity:1;" d="M 353.984375 56.039062 C 353.984375 64.859375 346.878906 72.5625 337.777344 72.5625 C 329.957031 72.5625 320.957031 68.753906 320.957031 55.742188 L 320.957031 16.492188 C 320.957031 7.167969 327.660156 0.0664062 337.5625 0.0664062 C 346.980469 0.0664062 353.984375 7.167969 353.984375 17.085938 L 353.984375 21.097656 L 343.773438 21.097656 L 343.773438 17.683594 C 343.773438 13.683594 341.378906 10.273438 337.472656 10.273438 C 332.363281 10.273438 331.160156 13.773438 331.160156 18.589844 L 331.160156 55.046875 C 331.160156 59.144531 332.757812 62.34375 337.367188 62.34375 C 340.167969 62.34375 343.773438 60.757812 343.773438 55.136719 L 343.773438 51.636719 L 353.984375 51.636719 Z M 353.984375 56.039062 "/>
<path style=" stroke:none;fill-rule:evenodd;fill:rgb(100%,100%,100%);fill-opacity:1;" d="M 371.582031 0.664062 L 380.101562 0.664062 L 396.007812 71.96875 L 385.804688 71.96875 L 382.804688 56.636719 L 368.890625 56.636719 L 365.882812 71.96875 L 355.679688 71.96875 Z M 375.898438 21.195312 L 375.6875 21.195312 L 370.691406 47.03125 L 380.902344 47.03125 Z M 375.898438 21.195312 "/>
<path style=" stroke:none;fill-rule:evenodd;fill:rgb(100%,100%,100%);fill-opacity:1;" d="M 401.117188 0.664062 L 416.433594 0.664062 C 422.042969 0.664062 426.144531 1.972656 429.652344 5.671875 C 433.148438 9.371094 434.253906 13.878906 434.253906 22.386719 C 434.253906 28.59375 433.75 32.808594 431.347656 36.710938 C 428.546875 41.320312 424.035156 44.128906 416.53125 44.128906 L 411.335938 44.128906 L 411.335938 71.96875 L 401.117188 71.96875 Z M 411.335938 34.507812 L 416.242188 34.507812 C 424.542969 34.507812 424.652344 29.613281 424.652344 22.5 C 424.652344 15.78125 424.652344 10.273438 416.644531 10.273438 L 411.335938 10.273438 Z M 411.335938 34.507812 "/>
<path style=" stroke:none;fill-rule:evenodd;fill:rgb(100%,100%,100%);fill-opacity:1;" d="M 440.15625 71.964844 L 450.367188 71.964844 L 450.367188 0.664062 L 440.15625 0.664062 Z M 440.15625 71.964844 "/>
<path style=" stroke:none;fill-rule:evenodd;fill:rgb(100%,100%,100%);fill-opacity:1;" d="M 468.386719 10.273438 L 456.578125 10.273438 L 456.578125 0.664062 L 490.410156 0.664062 L 490.410156 10.273438 L 478.597656 10.273438 L 478.597656 71.96875 L 468.386719 71.96875 Z M 468.386719 10.273438 "/>
<path style=" stroke:none;fill-rule:evenodd;fill:rgb(100%,100%,100%);fill-opacity:1;" d="M 500.707031 0.664062 L 509.210938 0.664062 L 525.125 71.96875 L 514.925781 71.96875 L 511.921875 56.636719 L 498.007812 56.636719 L 495.003906 71.96875 L 484.804688 71.96875 Z M 505.007812 21.195312 L 504.808594 21.195312 L 499.8125 47.03125 L 510.011719 47.03125 Z M 505.007812 21.195312 "/>
<path style=" stroke:none;fill-rule:evenodd;fill:rgb(100%,100%,100%);fill-opacity:1;" d="M 530.976562 0.664062 L 541.1875 0.664062 L 541.1875 61.75 L 561.394531 61.75 L 561.394531 71.96875 L 530.976562 71.96875 Z M 530.976562 0.664062 "/>
<path style=" stroke:none;fill-rule:evenodd;fill:rgb(100%,100%,100%);fill-opacity:1;" d="M 41.253906 71.933594 L 78.914062 50.179688 L 78.914062 34.003906 L 41.253906 55.769531 Z M 41.253906 71.933594 "/>
<path style=" stroke:none;fill-rule:evenodd;fill:rgb(100%,100%,100%);fill-opacity:1;" d="M 41.253906 22.730469 L 41.253906 38.898438 L 78.914062 17.136719 L 78.914062 0.964844 Z M 41.253906 22.730469 "/>
<path style=" stroke:none;fill-rule:evenodd;fill:rgb(100%,100%,100%);fill-opacity:1;" d="M 0 33.65625 L 37.671875 55.417969 L 37.671875 39.246094 L 0 17.492188 Z M 0 33.65625 "/>
<path style=" stroke:none;fill-rule:evenodd;fill:rgb(100%,100%,100%);fill-opacity:1;" d="M 179.875 32.511719 L 185.671875 32.511719 C 192.773438 32.511719 193.871094 28.503906 193.871094 21.394531 C 193.871094 14.183594 192.664062 10.289062 185.164062 10.289062 L 179.875 10.289062 Z M 169.664062 0.679688 L 186.070312 0.679688 C 198.175781 0.679688 204.070312 7.785156 204.070312 21.585938 C 204.070312 29.800781 201.769531 35.800781 195.28125 39.414062 L 206.277344 71.933594 L 195.46875 71.933594 L 185.964844 41.519531 L 179.875 41.519531 L 179.875 71.933594 L 169.664062 71.933594 Z M 169.664062 0.679688 "/>
<path style=" stroke:none;fill-rule:evenodd;fill:rgb(100%,100%,100%);fill-opacity:1;" d="M 89.746094 10.289062 L 101.550781 10.289062 L 101.550781 71.933594 L 111.75 71.933594 L 111.75 10.289062 L 123.558594 10.289062 L 123.558594 0.679688 L 89.746094 0.679688 Z M 89.746094 10.289062 "/>
<path style=" stroke:none;fill-rule:evenodd;fill:rgb(100%,100%,100%);fill-opacity:1;" d="M 152.910156 32.746094 L 140.308594 32.746094 L 140.308594 0.679688 L 130.113281 0.679688 L 130.113281 71.933594 L 140.308594 71.933594 L 140.308594 41.753906 L 152.910156 41.753906 L 152.910156 71.933594 L 163.109375 71.933594 L 163.109375 0.679688 L 152.910156 0.679688 Z M 152.910156 32.746094 "/>
<path style=" stroke:none;fill-rule:evenodd;fill:rgb(100%,100%,100%);fill-opacity:1;" d="M 211.238281 71.933594 L 221.453125 71.933594 L 221.453125 0.679688 L 211.238281 0.679688 Z M 211.238281 71.933594 "/>
<path style=" stroke:none;fill-rule:evenodd;fill:rgb(100%,100%,100%);fill-opacity:1;" d="M 246.179688 50.421875 L 245.980469 50.421875 L 237.871094 0.679688 L 227.074219 0.679688 L 241.574219 71.933594 L 250.570312 71.933594 L 265.167969 0.679688 L 254.375 0.679688 Z M 246.179688 50.421875 "/>
<path style=" stroke:none;fill-rule:evenodd;fill:rgb(100%,100%,100%);fill-opacity:1;" d="M 301.78125 10.289062 L 301.78125 0.679688 L 271.386719 0.679688 L 271.386719 71.933594 L 301.78125 71.933594 L 301.78125 61.734375 L 281.585938 61.734375 L 281.585938 42.359375 L 299.183594 42.359375 L 299.183594 32.746094 L 281.585938 32.746094 L 281.585938 10.289062 Z M 301.78125 10.289062 "/>
</g>
</svg>
